<svg xmlns="http://www.w3.org/2000/svg" width="99" height="99" fill="none"><path fill="#fff" d="M0 0h99v99H0z"/><path fill="#fff" d="M80.52 27.176c-2.476-1.854-5.462-2.755-9.13-2.755-2.053 0-3.972.276-5.666.52l-.457.067c-1.959.28-3.877.628-5.732.968-3.651.665-7.1 1.295-10.507 1.341-.108 0-.217.003-.326.003-3.334 0-6.803-.668-10.475-1.373a179.107 179.107 0 0 0-4.065-.752c-1.952-.33-4.38-.74-6.877-.74-3.09 0-5.78.616-8.226 1.883-4.011 2.076-6.887 6.45-7.505 11.415-.423 3.404.295 6.366.93 8.98.353 1.457.687 2.835.714 3.953-.019.49-.19 2.117-.25 2.572-.412 3-.726 7.533.121 12.094 1.218 6.556 7.06 10.47 15.629 10.47 2.594 0 5.292-.364 7.622-1.03a6.71 6.71 0 0 0 .734-.226 6.77 6.77 0 0 0 .786-.338c.436-.2.852-.415 1.25-.646 2.574 1.46 5.864 2.24 9.707 2.24 2.592 0 5.288-.365 7.616-1.03.248-.06.493-.136.732-.225.27-.096.535-.21.792-.34.434-.2.85-.415 1.246-.645 2.574 1.46 5.864 2.24 9.707 2.24 2.593 0 5.29-.366 7.618-1.03a6.98 6.98 0 0 0 .73-.224c.27-.097.534-.21.791-.342 6.92-3.172 7.266-9.346 7.433-12.325.161-2.865.14-5.398-.064-7.738a41.07 41.07 0 0 0-.106-1.03c-.066-.605-.222-1.994-.245-2.469.038-1.087.369-2.433.72-3.855.579-2.35 1.235-5.013 1.037-8.03-.311-4.678-2.543-8.798-6.285-11.603Z"/><path fill="#C2C1C1" d="M77.674 25.092a9.428 9.428 0 0 0-.556-.208.43.43 0 1 0-.285.815c.176.06.35.127.522.196a.432.432 0 1 0 .32-.803Zm-3.43-.905a18.508 18.508 0 0 0-.586-.074.433.433 0 0 0-.096.858c.188.02.373.046.557.072a.432.432 0 0 0 .125-.856ZM70.724 24c-.197.006-.392.012-.586.023a.43.43 0 1 0 .043.861c.188-.008.376-.017.566-.02a.435.435 0 0 0 .42-.443.43.43 0 0 0-.444-.42Zm-3.486.297c-.194.023-.385.049-.574.075a.433.433 0 0 0 .118.858l.567-.078a.43.43 0 1 0-.111-.855Zm-3.432.495c-.19.032-.381.06-.57.092a.433.433 0 0 0 .14.852c.188-.031.377-.06.566-.092a.432.432 0 0 0-.136-.852Zm-3.414.587-.567.104a.433.433 0 0 0 .154.85l.567-.104a.429.429 0 0 0 .348-.501.435.435 0 0 0-.502-.349Zm-3.398.614c-.19.034-.378.066-.566.098a.432.432 0 0 0 .144.852l.57-.098a.434.434 0 0 0-.148-.852Zm-3.397.53c-.19.026-.379.049-.567.072a.432.432 0 0 0 .104.858c.192-.023.384-.046.576-.072a.432.432 0 0 0 .372-.484.434.434 0 0 0-.485-.374Zm-3.405.325c-.19.009-.378.017-.568.023a.432.432 0 0 0 .03.864 19.6 19.6 0 0 0 .582-.026.43.43 0 0 0 .41-.452.43.43 0 0 0-.454-.409Zm-3.4-.029-.567-.043a.43.43 0 1 0-.074.858c.194.017.388.032.581.046a.432.432 0 1 0 .06-.86Zm-3.397-.389-.565-.086a.43.43 0 1 0-.136.852c.19.032.382.06.572.09a.432.432 0 0 0 .129-.856Zm-3.389-.584-.564-.107a.431.431 0 1 0-.162.847c.19.037.378.072.567.11a.432.432 0 0 0 .16-.85Zm-3.393-.648a36.4 36.4 0 0 0-.567-.106.433.433 0 0 0-.158.849c.19.035.377.07.565.107a.434.434 0 0 0 .505-.346.43.43 0 0 0-.345-.504Zm-3.413-.602-.572-.092a.434.434 0 0 0-.133.855c.191.03.38.058.566.09a.432.432 0 0 0 .139-.853Zm-3.456-.457a36.94 36.94 0 0 0-.581-.047.431.431 0 1 0-.062.861l.566.046a.432.432 0 1 0 .077-.86Zm-3.51-.093c-.196.009-.392.02-.586.035a.432.432 0 1 0 .064.86c.186-.01.373-.022.563-.03a.432.432 0 0 0-.04-.865Zm-3.497.475a17.79 17.79 0 0 0-.573.147.43.43 0 1 0 .227.832c.18-.049.36-.095.544-.138a.432.432 0 1 0-.198-.84Zm-3.342 1.167c-.178.086-.354.172-.53.262a.433.433 0 0 0 .397.769c.167-.087.334-.17.503-.251a.43.43 0 0 0 .205-.573.434.434 0 0 0-.575-.207Zm-2.992 1.926c-.15.127-.298.259-.443.394a.432.432 0 0 0 .588.634c.136-.127.275-.25.416-.372a.431.431 0 1 0-.56-.656Zm-2.394 2.621a16.8 16.8 0 0 0-.335.488.432.432 0 0 0 .722.475c.103-.156.208-.31.316-.46a.432.432 0 1 0-.703-.503Zm-1.721 3.097a16.94 16.94 0 0 0-.22.548.432.432 0 0 0 .81.306c.065-.175.134-.349.206-.52a.432.432 0 1 0-.796-.334Zm-1.012 3.392c-.035.193-.068.387-.097.582a.432.432 0 1 0 .854.127c.028-.185.059-.369.093-.552a.432.432 0 0 0-.85-.157ZM11 40.25c.005.198.012.394.023.59a.432.432 0 1 0 .863-.048 17.25 17.25 0 0 1-.022-.562.432.432 0 1 0-.864.02Zm.38 3.5c.035.192.072.383.11.572a.431.431 0 1 0 .847-.17c-.037-.185-.073-.37-.107-.558a.432.432 0 0 0-.85.155Zm.759 3.395.133.557a.432.432 0 1 0 .84-.198 50.065 50.065 0 0 0-.134-.562.432.432 0 1 0-.84.203Zm.617 3.318c.005.08.008.157.01.234l.432-.01-.432-.017c-.003.07-.01.18-.02.309a.432.432 0 1 0 .862.067 9.2 9.2 0 0 0 .021-.343v-.027a6.912 6.912 0 0 0-.011-.266.431.431 0 1 0-.862.053Zm-.318 3.363c-.023.187-.046.38-.067.577a.432.432 0 0 0 .858.095l.066-.567a.432.432 0 0 0-.857-.105Zm-.293 3.475a52.44 52.44 0 0 0-.023.582.432.432 0 1 0 .864.027c.006-.192.013-.382.022-.57a.432.432 0 1 0-.863-.039Zm-.01 3.492c.008.193.017.387.028.582a.431.431 0 1 0 .863-.05 37.2 37.2 0 0 1-.028-.568.432.432 0 1 0-.863.036Zm.319 3.483c.027.192.057.385.09.577a.432.432 0 1 0 .851-.14 30.11 30.11 0 0 1-.087-.561.432.432 0 1 0-.854.124Zm.834 3.443c.072.186.148.37.229.55a.432.432 0 0 0 .79-.35 11.131 11.131 0 0 1-.213-.512.432.432 0 1 0-.806.312Zm1.771 3.099c.124.155.251.308.383.457a.432.432 0 0 0 .648-.57c-.122-.14-.24-.28-.354-.425a.432.432 0 0 0-.677.538Zm2.604 2.434c.162.113.326.223.495.33a.432.432 0 0 0 .463-.73c-.157-.1-.312-.202-.463-.308a.432.432 0 1 0-.495.708Zm3.138 1.658c.182.07.367.139.554.204a.431.431 0 1 0 .285-.815 15.688 15.688 0 0 1-.526-.194.431.431 0 1 0-.313.805Zm3.4.952c.19.035.383.068.578.1a.432.432 0 0 0 .135-.854c-.188-.03-.373-.062-.556-.095a.432.432 0 0 0-.158.849Zm3.494.375c.194.007.389.012.585.015a.432.432 0 0 0 .013-.864 34.49 34.49 0 0 1-.566-.014.432.432 0 0 0-.032.863Zm3.505-.09c.194-.017.388-.035.582-.056a.432.432 0 0 0-.09-.859c-.189.02-.377.038-.566.054a.432.432 0 1 0 .074.86Zm3.469-.505c.192-.04.383-.082.572-.125a.432.432 0 0 0-.195-.842c-.183.042-.367.083-.553.122a.432.432 0 1 0 .176.846Zm3.388-1.038c.18-.084.358-.17.533-.259a.432.432 0 0 0-.392-.77c-.164.084-.332.165-.503.244a.432.432 0 0 0 .362.785Zm2.757.276c.182.072.366.141.553.208a.432.432 0 1 0 .29-.814 16.604 16.604 0 0 1-.526-.197.431.431 0 1 0-.317.803Zm3.397.967c.19.036.384.07.578.1a.432.432 0 1 0 .137-.852c-.187-.03-.372-.062-.555-.097a.432.432 0 1 0-.16.85Zm3.494.385c.194.008.389.014.585.017a.431.431 0 1 0 .015-.863c-.19-.004-.379-.01-.566-.016a.432.432 0 1 0-.034.862Zm3.505-.079c.194-.016.388-.034.582-.054a.432.432 0 0 0-.088-.86c-.188.02-.376.037-.565.053a.432.432 0 0 0 .07.861Zm3.47-.494c.193-.04.383-.08.572-.124a.432.432 0 1 0-.192-.842 25.84 25.84 0 0 1-.553.12.432.432 0 0 0 .173.846Zm3.408-1.026.045-.022-.196-.385.18.393c.166-.076.33-.155.49-.236a.432.432 0 1 0-.387-.772c-.152.076-.306.15-.463.223l-.016.007-.04.02a.432.432 0 0 0 .387.772Zm2.74.216c.182.073.367.143.553.21a.432.432 0 1 0 .293-.813 16.23 16.23 0 0 1-.524-.198.432.432 0 1 0-.321.801Zm3.394.982c.19.037.383.072.578.104a.432.432 0 0 0 .14-.853 16.03 16.03 0 0 1-.555-.099.432.432 0 0 0-.163.848Zm3.493.398c.193.008.388.014.585.019a.432.432 0 0 0 .017-.864c-.19-.004-.378-.01-.566-.018a.432.432 0 0 0-.036.863Zm3.505-.07c.194-.015.388-.032.582-.051a.432.432 0 0 0-.085-.86 28.71 28.71 0 0 1-.566.05.432.432 0 0 0 .069.862Zm3.472-.483c.192-.04.383-.08.572-.123a.432.432 0 1 0-.19-.842c-.182.04-.367.08-.553.118a.432.432 0 1 0 .17.847Zm3.411-1.004.122-.06-.196-.386.18.393c.141-.065.28-.13.415-.198a.432.432 0 1 0-.382-.774c-.128.063-.26.126-.393.187l-.016.008-.107.053a.432.432 0 1 0 .377.777Zm3.03-1.829c.157-.125.31-.253.457-.382a.432.432 0 1 0-.57-.65c-.137.121-.279.24-.425.357a.432.432 0 1 0 .538.675Zm2.428-2.616c.113-.168.22-.336.323-.504a.433.433 0 0 0-.74-.446c-.095.156-.194.312-.298.466a.432.432 0 0 0 .715.484Zm1.538-3.22c.06-.19.115-.38.167-.57a.432.432 0 0 0-.835-.225c-.049.178-.1.356-.156.536a.43.43 0 0 0 .28.542.435.435 0 0 0 .544-.282Zm.68-3.474c.02-.2.034-.396.049-.583a.43.43 0 0 0-.398-.464.434.434 0 0 0-.464.398c-.014.182-.028.37-.048.565a.432.432 0 0 0 .86.084Zm.195-3.48c.006-.194.012-.388.015-.58a.431.431 0 1 0-.864-.017c-.003.189-.009.38-.014.572a.434.434 0 0 0 .42.444.43.43 0 0 0 .443-.419Zm0-3.482a27.288 27.288 0 0 0-.023-.58.43.43 0 1 0-.86.038c.005.189.014.379.02.57a.432.432 0 0 0 .863-.028Zm-.253-3.478v-.007l-.063-.566a.432.432 0 1 0-.859.093l.064.568v.007a.432.432 0 1 0 .858-.095Zm-.153-3.33c.026-.179.058-.363.095-.552a.434.434 0 0 0-.345-.504.43.43 0 0 0-.504.344 16.04 16.04 0 0 0-.1.584.433.433 0 0 0 .365.491.43.43 0 0 0 .49-.364Zm.737-3.334c.046-.186.093-.373.136-.563a.43.43 0 1 0-.838-.2c-.046.188-.092.373-.135.557a.432.432 0 1 0 .838.205Zm.714-3.418c.03-.192.058-.386.084-.581a.433.433 0 0 0-.858-.11c-.023.187-.049.374-.078.56a.43.43 0 1 0 .852.132Zm.248-3.518c-.006-.196-.011-.392-.023-.59a.433.433 0 0 0-.864.05c.012.187.018.374.023.56a.432.432 0 0 0 .864-.02Zm-.449-3.511a19.01 19.01 0 0 0-.147-.574.43.43 0 1 0-.832.23c.049.18.095.361.138.543a.432.432 0 0 0 .841-.2Zm-1.195-3.337a12.648 12.648 0 0 0-.27-.527.431.431 0 1 0-.76.409c.088.164.172.33.255.498a.432.432 0 1 0 .775-.38Zm-1.905-2.988a16.26 16.26 0 0 0-.38-.453.43.43 0 1 0-.651.567c.122.142.242.284.36.43a.432.432 0 1 0 .671-.544Zm-2.513-2.495a16.173 16.173 0 0 0-.911-.677.432.432 0 1 0-.487.714c.153.104.304.21.453.323.137.103.273.207.406.314a.433.433 0 0 0 .54-.674Z"/><path fill="url(#a)" d="M34.88 69.214a.981.981 0 0 0 .204-.06.99.99 0 0 0 .216-.098c2.153-.947 3.195-2.26 3.717-4.001 1.814 5.786 11.074 5.599 15.956 4.16a.98.98 0 0 0 .204-.06.98.98 0 0 0 .216-.099c2.153-.947 3.195-2.26 3.717-4.001 1.814 5.786 11.074 5.599 15.956 4.16a.996.996 0 0 0 .205-.06.985.985 0 0 0 .215-.099c3.403-1.497 4.026-3.9 4.227-7.48.127-2.25.151-4.598-.051-6.92-.049-.565-.39-3.333-.375-4.035.083-3.813 2.03-7.555 1.77-11.461-.199-2.987-1.614-5.593-3.99-7.374-3.113-2.332-7.452-1.58-10.988-1.077-5.675.809-11.207 2.288-16.973 2.366-5.356.072-10.657-1.314-15.904-2.202-3.873-.655-7.874-1.297-11.494.578-2.55 1.32-4.096 4.254-4.44 7.012-.52 4.187 1.628 8.136 1.689 12.188.01.691-.262 3.087-.304 3.39-.468 3.406-.52 7.04.078 10.26 1.218 6.556 11.063 6.413 16.149 4.913Z"/><path fill="#42F2A6" d="M71.39 57.656c-.533.412-1.284.482-1.933.509-.661 0-1.357-.093-1.94-.423-.606-.343-.62-1.204-.62-1.81-.001-.672.014-1.486.632-1.914.516-.358 1.218-.406 1.83-.406.491 0 1.3-.016 1.734.285.649.45.807 1.077.806 1.835-.001.63.048 1.494-.51 1.924Zm1.328-4.705c-.803-1.217-3.213-1.023-4.531-.874-1.166.132-2.111.295-2.387 1.624-.272 1.314-.4 3.194.006 4.505.525 1.695 2.772 1.53 4.23 1.53 1.667-.113 2.966-.516 3.075-2.381.076-1.309.371-3.245-.393-4.404Z"/><path fill="#E8E7E6" d="M70.747 56.705c-.07.361-1.059.357-1.29.366-.317 0-.624-.032-.936-.1-.498-.11-.511-.39-.527-.85-.013-.377-.107-1.025.262-1.28.255-.177.813-.125 1.103-.136.71-.027 1.404-.02 1.443.827.018.386.017.793-.055 1.173Z"/><path fill="#42F2A6" d="M51.297 57.656c-.533.412-1.285.482-1.933.509-.66 0-1.357-.093-1.94-.423-.606-.343-.62-1.204-.62-1.81-.002-.672.014-1.486.632-1.914.516-.358 1.219-.406 1.83-.406.491 0 1.299-.016 1.734.285.649.45.808 1.077.805 1.835 0 .63.049 1.494-.508 1.924Zm1.328-4.705c-.803-1.217-3.213-1.023-4.532-.874-1.165.132-2.11.295-2.386 1.624-.272 1.314-.4 3.195.005 4.505.526 1.695 2.772 1.53 4.231 1.53 1.667-.113 2.966-.516 3.075-2.381.076-1.309.371-3.245-.393-4.404Z"/><path fill="#E8E7E6" d="M50.654 56.705c-.07.361-1.059.357-1.29.366-.317 0-.624-.032-.936-.1-.497-.11-.511-.39-.527-.85-.013-.377-.108-1.025.261-1.28.255-.177.815-.125 1.103-.136.711-.027 1.404-.02 1.444.827.018.386.017.793-.055 1.173Zm4.039 10.692c-4.181 1.295-13.576 1.77-14.148-4.04a58.123 58.123 0 0 1-.273-4.367c-.024-1.024.258-1.128.973-1.244a14.134 14.134 0 0 1 2.547-.18c.312 3.39 3.115 3.991 6.152 3.991 1.457-.098 3.086-.41 4.103-1.559.532-.599.78-1.486.876-2.434.696-.003 1.384.044 2.068.143.672.096.903.478.92 1.251.078 3.253.196 7.026-3.218 8.44Zm2.173-13.529a15.577 15.577 0 0 0-2.102-.106c-.494-3.234-3.21-3.543-6.056-3.543-1.377 0-2.887.252-3.899 1.24-.595.582-.89 1.41-1.026 2.303a15.04 15.04 0 0 0-2.432.15c-.597.087-.877-.012-.743-.915.357-2.4 1.029-4.707 2.181-6.706 3.495-6.064 11.356-3.35 13.64 2.173.584 1.413.93 2.973 1.14 4.562.13.98.013.929-.703.842Z"/><path fill="#42F2A6" d="M57.776 55.13c.036.54.065 1.078.082 1.609a15.046 15.046 0 0 0-2.885-.269c0-.564-.036-1.116-.08-1.617a14.03 14.03 0 0 1 2.883.277Zm-14.089-.277c-.018.556.001 1.108.029 1.62a15.015 15.015 0 0 0-3.44.347c.016-.537.047-1.075.087-1.61a13.99 13.99 0 0 1 3.324-.357Z"/><path fill="#E8E7E6" d="M74.786 67.397c-4.181 1.295-13.575 1.77-14.147-4.04a57.65 57.65 0 0 1-.277-4.428c-.017-.84.197-1.051.867-1.165.878-.15 1.76-.214 2.657-.198.313 3.39 3.113 3.991 6.15 3.991 1.458-.098 3.086-.411 4.104-1.559.531-.598.78-1.486.876-2.434.638-.003 1.27.037 1.896.119.958.126 1.069.26 1.09 1.124.075 3.285.25 7.155-3.216 8.59Zm2.12-13.535a15.679 15.679 0 0 0-2.048-.1c-.495-3.234-3.21-3.543-6.056-3.543-1.378 0-2.888.25-3.9 1.24-.595.582-.89 1.41-1.026 2.303a15.12 15.12 0 0 0-2.331.136c-.743.1-.98.006-.839-.931.358-2.39 1.028-4.685 2.177-6.676 3.495-6.064 11.356-3.35 13.64 2.173.58 1.405.926 2.957 1.135 4.538.122.914.137.963-.752.86Z"/><path fill="#42F2A6" d="M77.869 55.13c.036.54.065 1.078.083 1.609a15.055 15.055 0 0 0-2.886-.269c0-.564-.036-1.117-.08-1.617.973-.005 1.93.083 2.883.277Zm-14.089-.277c-.019.556 0 1.108.03 1.62a15.012 15.012 0 0 0-3.44.347c.016-.537.046-1.075.087-1.61a13.987 13.987 0 0 1 3.323-.357Z"/><path fill="#fff" d="M22.627 33.024c3.671-2.302 9.32-.557 13.204.158 4.404.81 8.784 1.65 13.275 1.715 4.114.059 8.241-.768 12.265-1.521 4.224-.79 9.063-2.201 13.281-.81 6.514 2.148 4.513 9.017 3.42 14.886-2.453-5.836-9.571-8.528-14.815-4.413-2.351 1.844-3.197 4.912-3.825 7.676-.086.378-.161.77-.237 1.16-.237-1.333-.557-2.641-1.01-3.895-2.233-6.198-9.621-9.178-15.021-4.941-2.351 1.844-3.197 4.912-3.825 7.676-.087.378-.16.77-.237 1.159-.237-1.332-.558-2.64-1.009-3.894-2.233-6.2-9.623-9.177-15.022-4.941-1.39 1.09-2.25 2.608-2.855 4.236-1.042-5.302-2.975-10.873 2.411-14.251Z"/><path fill="#E8E7E6" d="M28.616 50.22c-1.378 0-2.888.25-3.9 1.239-.596.582-.89 1.41-1.026 2.303a15.159 15.159 0 0 0-2.505.16c-.88.13-.567-.643-.497-1.94.387-2.033 1.02-3.975 2.008-5.691 3.495-6.063 11.357-3.35 13.64 2.173.573 1.386.916 2.914 1.127 4.471.123.903.123 1.032-.664.936a15.61 15.61 0 0 0-2.127-.11c-.495-3.233-3.211-3.542-6.056-3.542Z"/><path fill="#42F2A6" d="M23.624 56.472a15.02 15.02 0 0 0-3.44.348 34.77 34.77 0 0 1 .087-1.61 13.991 13.991 0 0 1 3.323-.357c-.018.556.001 1.108.03 1.62Zm14.059-1.342c.036.54.065 1.078.083 1.609a15.054 15.054 0 0 0-2.886-.269 18.546 18.546 0 0 0-.081-1.617c.974-.005 1.931.083 2.884.277Z"/><path fill="#E8E7E6" d="M21.135 57.748a14.162 14.162 0 0 1 2.565-.182c.311 3.39 3.114 3.991 6.15 3.991 1.458-.098 3.087-.41 4.103-1.559.532-.599.78-1.486.876-2.434.68-.003 1.35.041 2.017.135.748.105.955.526.978 1.506.075 3.195.103 6.814-3.224 8.192-4.182 1.295-13.576 1.77-14.148-4.04a58.735 58.735 0 0 1-.266-4.032c-.032-1.136.113-1.439.949-1.577Z"/><path fill="#42F2A6" d="M31.203 57.656c-.532.412-1.283.482-1.932.509-.661 0-1.357-.093-1.94-.423-.606-.343-.62-1.204-.62-1.81-.001-.673.014-1.486.632-1.914.516-.358 1.218-.406 1.83-.406.49 0 1.3-.016 1.734.285.648.45.808 1.077.805 1.835-.001.63.05 1.494-.509 1.924Zm1.329-4.705c-.803-1.217-3.213-1.023-4.531-.874-1.166.132-2.111.295-2.387 1.624-.272 1.313-.4 3.195.005 4.505.526 1.695 2.772 1.53 4.231 1.53 1.667-.113 2.966-.516 3.075-2.381.076-1.309.371-3.245-.393-4.404Z"/><path fill="#E8E7E6" d="M30.56 56.705c-.069.361-1.057.357-1.289.366-.317 0-.624-.032-.935-.1-.498-.11-.513-.39-.528-.85-.014-.377-.107-1.025.26-1.28.256-.177.816-.125 1.104-.136.71-.027 1.404-.02 1.444.827.017.386.017.793-.055 1.173Z"/><path fill="#C6C5C3" d="M63.278 53.135c-.887.023-1.766.14-2.605.342.028.455.298.498.872.42a15.12 15.12 0 0 1 2.33-.135c.138-.893.432-1.72 1.028-2.303 1.01-.99 2.521-1.24 3.9-1.24 2.844 0 5.56.309 6.055 3.543.69-.01 1.371.021 2.048.1.725.085.846.059.8-.447a10.873 10.873 0 0 0-2.246-.14c-.118-.877-.415-1.755-.98-2.358-1.193-1.273-3.052-1.35-4.699-1.4-2.933-.088-6.041.688-6.503 3.618Zm-42.093.788a15.159 15.159 0 0 1 2.505-.16c.136-.894.43-1.721 1.026-2.304 1.012-.989 2.522-1.24 3.9-1.24 2.845 0 5.561.309 6.056 3.543a15.61 15.61 0 0 1 2.127.11c.59.07.736.016.723-.395-.746-.1-1.51-.144-2.265-.125-.188-.89-.482-1.76-.99-2.482-.907-1.29-3.203-1.213-4.579-1.27-1.715-.074-3.507-.085-5.04.784-.913.517-1.47 1.625-1.73 2.715-.8.044-1.589.16-2.338.352.016.362.151.539.605.472ZM34.6 67.397c2.336-.967 3.015-3.04 3.189-5.294-.33 1.14-.86 2.202-1.734 3.15-1.626 1.762-4.143 2.146-6.415 2.22-2.255.072-4.785-.233-6.749-1.415-1.54-.927-2.162-2.588-2.57-4.265.04.529.081 1.056.13 1.565.573 5.81 9.967 5.334 14.149 4.04Zm41.482-2.261c-1.785 2.151-4.615 1.982-7.139 2.112-2.643.137-5.575-.35-7.163-2.672-.9-1.317-1.138-2.962-1.37-4.56.05 1.144.123 2.271.229 3.342.572 5.81 9.966 5.334 14.147 4.04 2.748-1.139 3.206-3.805 3.24-6.498-.327 1.518-.876 2.949-1.944 4.236Zm-21.389 2.261c2.922-1.21 3.256-4.148 3.242-7.01-.317 1.646-.929 3.193-2.032 4.539-1.578 1.926-3.987 2.385-6.335 2.573-2.321.186-4.775-.159-6.644-1.637-1.348-1.067-2.122-2.712-2.536-4.42.044.65.096 1.294.157 1.916.572 5.81 9.967 5.334 14.148 4.04Zm14.666-12.692c-.29.011-.848-.041-1.103.136-.369.255-.275.903-.262 1.28l.001.022c.41-.418.964-.634 1.605-.665.4-.018.799.072 1.146.268l.059.043c-.002-.086.001-.173-.003-.257-.04-.847-.732-.854-1.443-.827Zm-19.875.622c.388.005.767.127 1.092.335.053.033.094.072.135.11-.002-.08.001-.162-.002-.24-.04-.847-.733-.854-1.444-.827-.288.011-.848-.041-1.103.136-.347.241-.285.83-.265 1.211.356-.5.888-.732 1.587-.725Zm5.694-1.979c-.083-.852-.307-1.67-.843-2.435-.877-1.253-2.814-1.25-4.17-1.322-1.637-.089-3.428.065-4.937.743-1.052.473-1.587 1.539-1.876 2.637-.241.032-.482.066-.722.102-.592.087-1.367.11-2.052.276-.009.571.267.636.773.563a15.087 15.087 0 0 1 2.432-.15c.136-.893.431-1.72 1.026-2.303 1.012-.989 2.522-1.24 3.9-1.24 2.845 0 5.561.309 6.055 3.543.707-.01 1.407.022 2.102.106.622.075.791.123.74-.512-.79-.1-1.625-.08-2.428-.008Zm-26.006 1.357c-.288.011-.848-.041-1.103.136-.344.239-.286.817-.265 1.2.369-.452.821-.643 1.506-.68.632-.034 1.023.155 1.31.537 0-.123.002-.246-.004-.366-.04-.847-.733-.854-1.444-.827Z"/><path fill="#F7F7F7" d="M29.88 44.367c-2.539-.252-4.863 1.114-6.216 3.182-.902 1.378.08 1.017.63.776 1.198-.522 2.59-.696 3.848-.813 1.764-.163 3.642.077 5.282.796 1.08.475 1.052-.06.663-.764-.89-1.603-2.328-2.989-4.208-3.177Zm4.371 17.276c-1.665.921-3.56 1.378-4.588 1.444-2.129.136-4.27-.096-6.122-1.141-1.24-.7-1.556-.18-1.133.85 1.135 2.768 4.69 3.268 7.385 3.127 2.93-.154 5.123-1.298 5.794-3.545.41-1.373-.6-1.142-1.336-.735Zm15.503-17.1c-2.539-.253-4.863 1.113-6.216 3.18-.902 1.38.08 1.018.63.778 1.198-.523 2.59-.697 3.848-.813 1.764-.163 3.642.076 5.282.796 1.08.474 1.052-.06.662-.765-.889-1.603-2.328-2.988-4.206-3.176Zm4.722 16.866c-1.665.921-3.56 1.377-4.588 1.444-2.13.136-4.27-.096-6.121-1.142-1.241-.7-1.557-.18-1.134.851 1.134 2.768 4.69 3.268 7.385 3.127 2.93-.155 5.122-1.298 5.793-3.545.411-1.373-.599-1.142-1.335-.735Zm15.62-17.042c-2.539-.252-4.863 1.114-6.216 3.182-.902 1.378.08 1.017.63.776 1.198-.522 2.59-.696 3.847-.813 1.765-.163 3.643.077 5.282.796 1.08.475 1.053-.06.663-.764-.889-1.603-2.327-2.989-4.206-3.177Zm4.372 17.276c-1.666.921-3.562 1.378-4.59 1.444-2.128.136-4.27-.096-6.12-1.141-1.24-.7-1.557-.18-1.134.85 1.134 2.768 4.69 3.268 7.385 3.127 2.93-.154 5.123-1.298 5.793-3.545.412-1.373-.599-1.142-1.334-.735Z"/><path fill="#F79717" d="M72.03 54.497c-.356-1.706-2.781-1.382-4.022-1.087-1.465.348-1.478 2.438-1.067 3.592a.94.94 0 0 0 .168.287c-.2-.406-.212-.94-.213-1.357 0-.672.015-1.486.633-1.914.516-.358 1.218-.406 1.83-.406.491 0 1.3-.016 1.734.285.649.45.807 1.077.806 1.835 0 .444.02 1.003-.162 1.445.552-.665.448-1.944.293-2.68Z"/><path fill="#5DFFEF" d="M73.209 55.923c-.08.449-.158.898-.274 1.34-.47 1.793-1.812 1.964-3.395 2.057-1.182.07-2.627.04-3.435-1.012-.371-.486-.496-1.18-.552-1.882.016.635.09 1.253.253 1.78.525 1.695 2.772 1.53 4.23 1.53 1.667-.113 2.966-.516 3.075-2.381.025-.426.07-.921.098-1.432Z"/><path fill="#F79717" d="M47.928 53.41c-1.464.348-1.478 2.438-1.067 3.592.032.09.08.166.13.238-.177-.4-.187-.908-.188-1.308 0-.672.015-1.486.633-1.914.516-.358 1.219-.406 1.83-.406.491 0 1.299-.016 1.734.285.649.45.808 1.077.805 1.835 0 .455.022 1.03-.174 1.479.583-.656.477-1.966.32-2.714-.356-1.706-2.782-1.382-4.023-1.087Zm-20.079 0c-1.464.348-1.478 2.438-1.067 3.592a.947.947 0 0 0 .092.189c-.156-.391-.162-.876-.163-1.259-.001-.673.014-1.486.632-1.914.516-.358 1.218-.406 1.83-.406.49 0 1.3-.016 1.734.285.648.45.808 1.077.805 1.835 0 .466.025 1.06-.187 1.51.615-.644.506-1.986.347-2.745-.357-1.706-2.782-1.382-4.023-1.087Z"/><path fill="#5DFFEF" d="M33.01 56.143c-.067.375-.137.75-.234 1.12-.47 1.793-1.812 1.964-3.395 2.057-1.182.07-2.627.04-3.435-1.012-.456-.596-.543-1.502-.583-2.358-.016.8.053 1.6.256 2.256.526 1.695 2.772 1.53 4.231 1.53 1.667-.113 2.966-.516 3.075-2.381.021-.365.058-.78.085-1.212Zm12.448.096c.005.7.076 1.39.254 1.967.526 1.695 2.772 1.53 4.231 1.53 1.667-.113 2.966-.516 3.075-2.381.023-.396.064-.85.092-1.322a15.77 15.77 0 0 1-.255 1.23c-.468 1.793-1.811 1.964-3.395 2.057-1.181.07-2.627.04-3.434-1.012-.405-.529-.518-1.304-.568-2.069Z"/><path fill="#69DC80" d="M73.113 53.947a2.907 2.907 0 0 0-.395-.996c-.803-1.217-3.213-1.023-4.531-.874-1.166.132-2.111.295-2.387 1.624a12.99 12.99 0 0 0-.104.59c.05-.144.098-.287.158-.427.545-1.27 1.883-1.39 3.067-1.455.88-.049 1.82-.03 2.685.145.68.136 1.158.726 1.507 1.393Zm-40.094.687c-.048-.625-.18-1.218-.487-1.683-.803-1.217-3.213-1.023-4.531-.874-1.166.132-2.111.295-2.387 1.624-.014.068-.025.143-.039.213.332-.63.754-1.094 1.608-1.384.682-.23 1.551-.163 2.265-.165 1.241-.003 2.22.146 3.026 1.193.24.313.406.687.545 1.076Zm12.555-.139c.248-.628.63-1.178 1.25-1.573.79-.504 2.022-.429 2.93-.463 1.822-.07 2.638.616 3.312 1.793-.069-.48-.198-.932-.44-1.301-.804-1.217-3.214-1.023-4.532-.874-1.166.132-2.111.295-2.387 1.624-.05.246-.094.516-.133.794Z"/><path fill="#fff" d="M23.071 43.039c5.4-4.236 12.789-1.258 15.022 4.941.451 1.254.772 2.562 1.01 3.894.075-.39.15-.781.236-1.159.628-2.764 1.474-5.832 3.825-7.676 5.4-4.237 12.788-1.258 15.022 4.941.452 1.254.772 2.562 1.009 3.895.076-.39.15-.782.237-1.16.628-2.764 1.474-5.832 3.825-7.676 4.873-3.823 11.361-1.768 14.224 3.224-.705-2.801-3.086-5.335-5.584-6.385-3.117-1.31-6.957-.572-9.415 1.689-1.48 1.362-2.455 3.193-3.136 5.12a28.646 28.646 0 0 0-1.918-2.878c-2.09-2.79-5.116-4.434-8.607-4.494-3.817-.064-6.921 2.69-8.89 5.704-.288.44-.544.893-.774 1.355-.802-2.504-2.22-4.877-4.505-6.238-2.702-1.609-6.198-1.175-8.86.273-1.684.916-3.716 2.797-4.614 4.831.496-.831 1.108-1.586 1.893-2.201Zm-4.026-4.215c.883-1.985 2.339-3.758 4.139-4.698 2.688-1.403 6.199-1.149 9.063-.536 6.407 1.37 12.622 2.625 19.214 2.27 2.893-.155 5.766-.595 8.612-1.12 3.25-.598 6.467-1.573 9.783-1.699 2.765-.105 5.608.425 7.935 1.976.215.143.407.296.596.451-.688-1.268-1.855-2.282-3.735-2.902-4.218-1.391-9.057.02-13.28.81-4.025.753-8.152 1.58-12.266 1.522-4.491-.065-8.871-.906-13.275-1.716-3.883-.715-9.533-2.46-13.204-.158-2.471 1.55-3.4 3.563-3.582 5.8Z"/><path fill="#5DFFEF" d="M75.054 56.05c.004.14.012.279.012.42.973 0 1.934.085 2.886.269-.004-.138-.015-.28-.021-.42-.824-.39-1.913-.392-2.877-.269Zm-11.264-.06c-.48-.067-1.003-.019-1.457.053-.616.097-1.297.204-1.942.384-.005.132-.017.262-.021.393a15.012 15.012 0 0 1 3.44-.348c-.01-.155-.015-.32-.02-.482Zm-8.83.023c.005.152.013.302.013.457.973 0 1.934.085 2.886.269-.004-.139-.015-.282-.022-.422-.762-.412-1.914-.471-2.877-.304Zm-11.262.009c-.044-.016-.084-.037-.13-.05-.82-.23-1.819.063-2.603.289-.218.062-.444.128-.669.201-.005.12-.016.239-.02.358a15.015 15.015 0 0 1 3.44-.348c-.008-.145-.011-.299-.018-.45Zm-20.103-.26c-1.133-.066-2.322.24-3.392.688-.004.123-.016.246-.019.37a15.02 15.02 0 0 1 3.44-.348 26.534 26.534 0 0 1-.03-.71Zm11.272.292c.004.138.013.275.013.416.973 0 1.933.085 2.886.269-.006-.187-.02-.377-.029-.565-.841-.353-1.936-.313-2.87-.12Z"/><defs><linearGradient id="a" x1="49.134" x2="49.134" y1="76.252" y2="24" gradientUnits="userSpaceOnUse"><stop stop-color="#2273FF"/><stop offset="1" stop-color="#7FBFFF"/></linearGradient></defs></svg>