<svg xmlns="http://www.w3.org/2000/svg" width="99" height="99" fill="none"><path fill="#fff" d="M0 0h99v99H0z"/><path fill="#fff" d="M47.93 13.454a26.333 26.333 0 0 0-1.732-.058c-7.138 0-13.855 2.936-18.915 8.266a28.659 28.659 0 0 0-7.857 18.758c-.003.08-.004.16-.003.24a27.145 27.145 0 0 0 7.636 18.7c4.808 4.985 11.285 7.975 18.235 8.417a25.629 25.629 0 0 0 3.877-.048c2.53 5.229 4.942 9.736 7.46 13.958 2.169 3.64 5.867 5.81 9.893 5.81 1.668 0 3.316-.364 4.895-1.085 5.422-2.478 7.82-9.398 5.236-15.112-2.323-5.137-5.257-9.928-8.252-14.55 3.23-4.34 5.113-9.485 5.391-14.875.759-14.679-10.844-27.428-25.864-28.421Z"/><path fill="#C2C1C1" d="M44.522 13.027c-.19.012-.382.026-.572.043a.423.423 0 1 0 .072.842c.185-.016.37-.03.554-.041a.422.422 0 1 0-.054-.844Zm-3.408.445c-.187.037-.374.077-.56.118a.423.423 0 0 0 .182.825c.18-.04.362-.078.543-.114a.423.423 0 1 0-.165-.829Zm-3.318.892c-.18.062-.36.126-.54.191a.423.423 0 1 0 .291.795c.174-.064.348-.126.523-.186a.423.423 0 1 0-.274-.8Zm-3.17 1.323c-.17.085-.34.172-.51.26a.423.423 0 0 0 .393.75c.164-.086.328-.17.494-.253a.423.423 0 0 0-.377-.757Zm-2.969 1.724c-.158.106-.315.214-.472.323a.423.423 0 0 0 .486.693c.152-.106.304-.21.457-.313a.423.423 0 1 0-.471-.703Zm-2.724 2.087c-.144.124-.286.25-.427.378a.423.423 0 0 0 .568.627c.137-.124.274-.247.414-.367a.423.423 0 1 0-.555-.638ZM26.485 21.9c-.127.142-.254.285-.379.43a.423.423 0 1 0 .638.554c.122-.14.245-.279.37-.417a.423.423 0 1 0-.629-.567Zm-2.145 2.68c-.11.156-.22.313-.326.47a.423.423 0 1 0 .699.475c.104-.153.21-.305.317-.456a.423.423 0 0 0-.69-.489Zm-1.815 2.911c-.091.168-.18.336-.269.506a.423.423 0 0 0 .75.389c.086-.164.173-.328.262-.49a.423.423 0 0 0-.743-.405Zm-1.46 3.105c-.07.177-.139.355-.206.533a.423.423 0 0 0 .79.298c.066-.173.133-.345.202-.517a.423.423 0 1 0-.785-.314Zm-1.082 3.254c-.05.184-.097.369-.143.554a.423.423 0 1 0 .82.203c.045-.18.092-.359.14-.537a.423.423 0 1 0-.817-.22Zm-.693 3.36c-.027.188-.053.377-.077.566a.423.423 0 0 0 .84.105c.023-.184.047-.367.074-.55a.422.422 0 1 0-.837-.122ZM19 40.637v.026c.001.183.005.366.01.549a.423.423 0 0 0 .845-.023 25.496 25.496 0 0 1-.01-.533v-.022a.423.423 0 1 0-.845.003Zm.235 3.427c.025.19.052.379.08.567a.423.423 0 0 0 .836-.127 29.439 29.439 0 0 1-.078-.55.423.423 0 1 0-.838.11Zm.656 3.37c.048.185.098.37.15.553a.423.423 0 1 0 .814-.23c-.05-.178-.099-.357-.146-.536a.422.422 0 1 0-.818.213Zm1.07 3.262c.07.177.143.354.218.53a.423.423 0 1 0 .778-.33c-.072-.17-.142-.341-.21-.513a.423.423 0 0 0-.786.313Zm1.468 3.103c.093.167.186.333.282.498a.422.422 0 1 0 .732-.424c-.093-.16-.184-.32-.274-.483a.423.423 0 1 0-.74.409Zm1.843 2.895c.112.154.226.307.341.46a.423.423 0 0 0 .673-.512 24.972 24.972 0 0 1-.33-.445.423.423 0 1 0-.684.497Zm2.186 2.645c.097.105.196.21.296.313l.099.102a.423.423 0 0 0 .605-.59l-.095-.1c-.097-.1-.193-.2-.288-.302a.422.422 0 1 0-.617.578Zm2.492 2.36c.147.122.294.244.443.363a.423.423 0 1 0 .53-.66 27.14 27.14 0 0 1-.43-.352.423.423 0 0 0-.543.649Zm2.762 2.038c.16.104.322.206.484.306a.423.423 0 0 0 .445-.72 26.141 26.141 0 0 1-.469-.296.423.423 0 0 0-.46.71Zm2.99 1.684c.172.084.345.165.518.245a.422.422 0 1 0 .354-.768 25.217 25.217 0 0 1-.502-.237.423.423 0 0 0-.37.76Zm3.173 1.308c.18.062.362.121.543.18a.423.423 0 1 0 .258-.806 26.827 26.827 0 0 1-.527-.174.423.423 0 0 0-.274.8Zm3.308.911c.186.04.373.077.56.113a.423.423 0 1 0 .158-.83 29.866 29.866 0 0 1-.543-.11.423.423 0 1 0-.175.828Zm3.393.506c.19.016.38.031.57.044a.423.423 0 0 0 .057-.843 33.422 33.422 0 0 1-.553-.043.423.423 0 1 0-.074.842Zm3.434.082c.19-.008.381-.018.572-.03a.423.423 0 0 0-.055-.844c-.184.011-.369.021-.553.03a.423.423 0 0 0 .036.844Zm1.75 1.664.252.506a.423.423 0 0 0 .756-.377l-.25-.504a.423.423 0 0 0-.758.375Zm1.53 3.025.26.502a.425.425 0 0 0 .57.18.425.425 0 0 0 .18-.572c-.087-.163-.173-.332-.26-.499a.424.424 0 0 0-.75.39Zm1.581 2.997c.09.169.18.332.27.499a.421.421 0 0 0 .574.169.421.421 0 0 0 .169-.572c-.09-.167-.18-.33-.268-.496a.423.423 0 0 0-.744.4Zm1.641 2.97.28.491a.423.423 0 1 0 .734-.42l-.278-.487a.423.423 0 1 0-.736.417Zm1.704 2.932.05.088c.083.138.167.273.253.406a.422.422 0 1 0 .71-.457c-.08-.127-.159-.254-.236-.383l-.05-.085a.422.422 0 0 0-.58-.147.42.42 0 0 0-.147.578Zm2.145 2.746c.14.135.284.267.429.397a.423.423 0 1 0 .56-.634 13.252 13.252 0 0 1-.4-.37.422.422 0 1 0-.589.606Zm2.83 2.049c.173.09.348.175.525.256a.42.42 0 0 0 .56-.208.42.42 0 0 0-.207-.558 10.62 10.62 0 0 1-.488-.24.422.422 0 1 0-.39.75Zm3.309 1.13c.191.034.384.065.578.088a.422.422 0 1 0 .106-.838 11.3 11.3 0 0 1-.536-.081.42.42 0 0 0-.49.34.424.424 0 0 0 .342.491Zm3.495.088c.193-.026.385-.054.577-.088a.423.423 0 1 0-.146-.831c-.178.03-.357.056-.537.079a.423.423 0 0 0 .105.84Zm3.364-.93a8.378 8.378 0 0 0 .531-.246.421.421 0 1 0-.375-.755c-.09.042-.18.087-.272.127a7.368 7.368 0 0 1-.22.098.422.422 0 1 0 .336.775Zm2.948-1.895c.145-.132.286-.268.423-.406a.422.422 0 1 0-.6-.595c-.128.127-.258.254-.391.375a.423.423 0 1 0 .568.626Zm2.19-2.728c.097-.17.19-.341.279-.516a.42.42 0 0 0-.183-.567.421.421 0 0 0-.57.183c-.082.161-.169.319-.259.477a.423.423 0 0 0 .733.423Zm1.286-3.248c.045-.188.085-.38.121-.569a.423.423 0 1 0-.831-.158 11.35 11.35 0 0 1-.113.53.423.423 0 1 0 .823.197Zm.323-3.475c-.01-.195-.023-.389-.042-.58a.422.422 0 1 0-.842.079c.017.18.03.363.04.543a.423.423 0 0 0 .844-.042Zm-.665-3.428a11.7 11.7 0 0 0-.206-.547.423.423 0 1 0-.784.319c.068.166.132.336.191.507a.424.424 0 0 0 .799-.279Zm-1.407-3.13a39.99 39.99 0 0 0-.252-.508.423.423 0 0 0-.756.379l.25.502a.423.423 0 1 0 .758-.373Zm-1.564-3.018a76.59 76.59 0 0 0-.272-.497.423.423 0 1 0-.74.408l.269.492a.423.423 0 0 0 .743-.403Zm-1.672-2.957a98.87 98.87 0 0 0-.287-.487.423.423 0 0 0-.728.43l.286.485a.423.423 0 1 0 .729-.428Zm-1.754-2.904-.3-.48a.423.423 0 1 0-.716.448l.297.477a.423.423 0 1 0 .719-.445Zm-1.813-2.865-.306-.475a.423.423 0 1 0-.71.46l.305.473a.423.423 0 0 0 .711-.458Zm.94-2.362c.1-.163.198-.327.294-.491a.423.423 0 1 0-.73-.427c-.093.16-.188.318-.285.476a.423.423 0 1 0 .721.442Zm1.611-3.031a30.5 30.5 0 0 0 .232-.524.423.423 0 1 0-.777-.334c-.073.17-.148.34-.225.508a.422.422 0 1 0 .77.35Zm1.225-3.207c.057-.182.112-.365.165-.548a.423.423 0 0 0-.812-.235 24.75 24.75 0 0 1-.16.531.423.423 0 1 0 .807.252Zm.816-3.334c.034-.188.066-.376.095-.565a.423.423 0 0 0-.835-.131c-.03.182-.06.365-.092.547a.423.423 0 1 0 .832.149Zm.393-3.41v-.011c.01-.188.018-.375.023-.562a.423.423 0 0 0-.845-.026c-.006.181-.013.363-.022.544v.01a.423.423 0 1 0 .844.044Zm-.042-3.434c-.015-.19-.032-.38-.05-.57a.423.423 0 0 0-.842.083c.018.183.035.367.049.552a.423.423 0 0 0 .843-.065Zm-.485-3.4a26.16 26.16 0 0 0-.123-.561.423.423 0 0 0-.824.19c.042.181.082.362.12.544a.423.423 0 0 0 .828-.173Zm-.918-3.311a27.08 27.08 0 0 0-.194-.54.423.423 0 1 0-.792.295c.064.173.127.347.188.522a.423.423 0 1 0 .798-.277Zm-1.33-3.166a27.777 27.777 0 0 0-.261-.51.423.423 0 1 0-.75.391c.086.164.17.33.253.495a.423.423 0 0 0 .757-.376Zm-1.717-2.973a26.966 26.966 0 0 0-.322-.474.423.423 0 1 0-.694.482c.105.152.209.305.311.46a.423.423 0 1 0 .705-.468Zm-2.069-2.738a25.693 25.693 0 0 0-.376-.43.423.423 0 0 0-.631.563c.123.138.245.277.365.417a.423.423 0 1 0 .642-.55ZM65.27 20.42a29.65 29.65 0 0 0-.425-.382.423.423 0 0 0-.558.635c.138.122.276.246.412.37a.423.423 0 0 0 .571-.623Zm-2.665-2.16c-.154-.11-.31-.219-.467-.327a.423.423 0 0 0-.478.698c.152.105.304.21.454.318a.423.423 0 1 0 .491-.688Zm-2.904-1.821c-.167-.091-.335-.18-.504-.268a.423.423 0 1 0-.39.75c.164.085.327.171.489.26a.423.423 0 0 0 .405-.742Zm-3.104-1.459c-.177-.07-.355-.139-.534-.206a.423.423 0 1 0-.296.792c.173.065.346.132.518.2a.423.423 0 1 0 .312-.786Zm-3.258-1.073a28.472 28.472 0 0 0-.555-.14.423.423 0 1 0-.199.822c.18.044.36.089.538.136a.423.423 0 0 0 .216-.818Zm-3.365-.671c-.188-.026-.377-.05-.567-.072a.423.423 0 0 0-.099.84c.185.021.368.045.551.07a.423.423 0 0 0 .115-.838Zm-2.016-.205c-.19-.012-.381-.023-.572-.032a.423.423 0 0 0-.038.845c.185.008.37.019.554.03a.423.423 0 1 0 .056-.843Z"/><path fill="url(#a)" d="M47.558 19.08c-12.405-.822-22.089 9.683-22.498 21.535.094 11.56 9.192 20.811 20.593 21.536 2.345.15 4.62-.121 6.766-.732 2.755 5.931 5.702 11.762 9.053 17.382 1.652 2.768 4.676 3.82 7.604 2.484 2.806-1.283 3.634-5.029 2.443-7.662-2.748-6.074-6.515-11.798-10.176-17.368 3.949-3.782 6.53-9.02 6.821-14.671.617-11.929-8.98-21.736-20.606-22.505Z"/><path fill="#fff" d="M54.946 42.05c-.705 1.686-1.744 3.007-2.038 4.88-.216 1.39-.425 2.71-1.011 3.996-.707 1.166-2.002 1.984-3.188.958-1.256-1.087-.657-3.7-.669-5.104-.033-.771-.082-2.572-1.218-2.53-1.17.042-1.425 1.57-1.468 2.49-.02 1.671.569 4.072-.883 5.329-1.075.93-2.418-.225-2.974-1.143-.688-1.512-.755-3.069-1.135-4.662-.403-1.691-1.442-2.946-2.053-4.528-.793-2.051-1.221-4.455-.981-6.654.234-2.153.951-4.296 2.99-5.373 2.248-1.188 3.575-.659 5.867-.189 1.223.25 2.454-.484 3.684-.528 1.486-.052 2.634.317 3.838 1.191 1.53 1.112 2.078 3.378 2.192 5.153.146 2.254-.074 4.615-.953 6.714Zm-8.33-17.815c-9.158.2-16.075 7.33-16.379 16.38.06 8.807 7.422 16.568 16.38 16.38 8.46-.178 16.325-6.904 16.374-15.662.05-9.039-6.937-17.304-16.375-17.098Z"/><path fill="#E8E7E6" d="M53.454 42.59c-.634 1.126-1.155 2.131-1.456 3.39-.357 1.498-.375 2.977-1.026 4.406-.207.341-.428.602-.766.825-.953.625-1.122-1.139-1.156-1.52-.087-.962.069-1.946.06-2.91-.059-1.377-.344-3.468-2.102-3.589-1.959-.135-2.65 1.945-2.724 3.548-.01.86.066 1.718.072 2.579.003.585-.075 1.158-.34 1.684-.478.947-1.403-.3-1.595-.617-1.056-2.318-.859-4.876-2.105-7.155-1.01-1.844-1.645-3.498-1.888-5.605-.235-2.039-.092-4.395 1.234-6.055 1.881-2.357 4.21-1.434 6.559-.953 1.735.355 3.419-.8 5.249-.433 2.992.602 3.422 4.288 3.404 6.729-.016 1.988-.444 3.946-1.42 5.677Z"/><path fill="#fff" d="M66.641 68.252c1.735 3.023 5.874 8.283 1.98 11.226-4.048 3.06-6.848-3.642-8.297-6.252-1.942-3.494-3.719-7.079-5.424-10.696-.609-1.294-.506-1.742.565-2.24a21.384 21.384 0 0 0 3.306-1.917c1.008-.712 1.456-.562 2.2.593a216.455 216.455 0 0 1 5.67 9.286Zm-2.58-26.919c-.424 9.342-8.587 17.27-18.159 16.72-9.249-.534-16.67-8.067-16.736-17.438.323-9.59 8.14-18.03 18.144-17.437 9.436.561 17.188 8.508 16.751 18.155Zm2.326-.718c-.358-10.572-8.733-20.042-19.77-19.773-11.075.27-19.395 8.836-19.773 19.773.086 10.61 8.945 20.025 19.772 19.773 4.892-.114 9.001-1.627 12.915-4.912l.042-.035c4.262-3.596 7.017-8.859 6.814-14.826Z"/><path fill="#C6C5C3" d="M53.048 41.76c-1.054 1.983-1.588 3.005-1.913 5.254-.064.44-.294 1.892-.393 2.319-.485 2.089-1.254 1.174-1.154-.921.023-.463.075-.925.1-1.39.041-.782 0-1.553-.17-2.319-.31-1.4-1.46-2.213-2.85-2.269-1.54-.062-2.554 1.425-2.831 2.735-.253 1.19.058 2.855.127 4.057.119 2.073-1.193 1.599-1.498-.357-.289-1.85-.36-3.71-1.14-5.43-.928-2.049-2.07-3.96-2.532-6.19a9.973 9.973 0 0 1 .094-4.34c-.598 1.462-.637 3.18-.46 4.717.243 2.107.878 3.761 1.888 5.605 1.246 2.279 1.049 4.837 2.105 7.155.192.317 1.117 1.564 1.595.617.266-.526.343-1.1.34-1.684-.006-.86-.083-1.718-.072-2.579.074-1.603.765-3.683 2.724-3.548 1.758.121 2.043 2.212 2.102 3.588.008.965-.147 1.949-.06 2.911.034.381.203 2.145 1.157 1.52.337-.223.558-.483.765-.825.65-1.43.67-2.909 1.026-4.406.301-1.259.822-2.264 1.456-3.39.976-1.73 1.404-3.688 1.42-5.676.012-1.638-.182-3.83-1.211-5.282 1.161 3.27 1 7.09-.614 10.128Z"/><path fill="#F7F7F7" d="M53.293 34.756c-.187-1.174-.678-2.2-1.799-2.716-.978-.451-1.863-.12-2.752.257-1.126.48-2.383.517-3.642.103-.75-.246-1.5-.476-2.327-.313-.968.192-1.561 1.14-1.912 1.971-.982 2.332-.114 5.207 1.22 7.35.664 1.067 1.021.582 1.449-.123.742-1.226 1.853-1.97 3.485-2.075 1.242-.08 2.403.79 2.95 1.889.49.984.682 1.287 1.348.486 1.516-1.825 2.339-4.584 1.98-6.829Z"/><path fill="#fff" d="M61.958 36.24c.38 2.89.11 5.864-.765 8.64-1.752 5.558-6.895 9.204-12.442 10.315-5.76 1.154-11.007-1.312-14.3-6.062-1.742-2.514-2.763-5.49-3.086-8.519-.263-2.468.1-4.905.713-7.285a17.45 17.45 0 0 0-1.841 7.286c.06 8.807 7.422 16.568 16.38 16.38 8.46-.178 16.325-6.904 16.374-15.662a17.705 17.705 0 0 0-1.333-6.808c.122.556.222 1.127.3 1.714Z"/><path fill="#fff" d="M40.43 47.328c.143.369.259.866.4 1.373-.158-.801-.272-1.614-.468-2.437-.403-1.691-1.442-2.946-2.053-4.528-.793-2.051-1.221-4.455-.981-6.654.234-2.153.951-4.296 2.99-5.373 2.248-1.188 3.575-.659 5.867-.189 1.223.25 2.454-.484 3.684-.528 1.486-.052 2.634.317 3.838 1.191 1.53 1.112 2.078 3.378 2.192 5.153.146 2.254-.074 4.615-.953 6.714-.705 1.686-1.744 3.007-2.038 4.88-.185 1.191-.367 2.33-.783 3.44.44-.508.744-1.107.98-1.805.634-1.866 1.364-3.575 2.22-5.354 1.123-2.337 1.643-5.04 1.674-7.623.028-2.336-.593-4.752-2.433-6.303-1.057-.892-2.399-1.22-3.752-1.214-.792.003-1.6.18-2.379.306-1.316.214-2.483.126-3.79-.111-2.595-.47-5.156.038-6.77 2.305-1.501 2.111-1.855 4.713-1.528 7.238.45 3.483 2.849 6.31 4.083 9.519Z"/><path fill="#fff" d="M47.482 45.601c.57 1.44-.337 3.326-.263 4.853.07 1.46 1.684 3.076 3.194 2.258.65-.353 1.05-.885 1.292-1.501-.733 1.005-1.91 1.613-2.996.673-1.256-1.087-.657-3.7-.669-5.104-.033-.771-.082-2.572-1.218-2.53-1.17.042-1.425 1.57-1.468 2.49-.02 1.671.569 4.072-.883 5.329-.992.858-2.212-.06-2.831-.928.403.866 1.101 1.521 2.209 1.586 2.106.123 2.315-2.516 2.213-3.96-.042-.59-.123-1.178-.168-1.768a4.796 4.796 0 0 1 .05-1.128c.132-.926 1.167-1.206 1.538-.27Zm-.866-21.366c-5.882.129-10.836 3.12-13.711 7.637 3.81-3.954 8.614-6.575 14.335-6.708 3.363-.078 6.552.766 9.378 2.515-2.721-2.206-6.158-3.528-10.002-3.444Z"/><path fill="#fff" d="M46.616 60.388c4.892-.114 9.001-1.627 12.915-4.912l.042-.035c4.262-3.596 7.017-8.859 6.814-14.826a20.848 20.848 0 0 0-.112-1.511c-.009 3.297-.622 6.56-2.099 9.612-2.05 4.24-5.646 7.276-9.873 9.219-8.678 3.988-18.282.597-24.003-6.311 3.57 5.313 9.56 8.922 16.316 8.764Z"/><path fill="#fff" d="M29.158 43.642c.355 1.68.97 3.173 1.774 4.503a17.357 17.357 0 0 1-1.765-7.53c.322-9.59 8.14-18.03 18.143-17.437 9.436.561 17.188 8.508 16.751 18.155a16.996 16.996 0 0 1-.408 2.982c.732-3.06.547-6.42-.212-9.376-1.368-5.332-5.362-9.474-10.429-11.534-6.581-2.676-13.442-1.052-18.586 3.756-4.442 4.152-6.526 10.533-5.268 16.481Zm39.31 35.94c-1.643.087-3.074-1.006-4.135-2.221-1.684-1.923-2.766-4.493-3.977-6.728-1.94-3.579-4.141-8.101-2.368-11.733-.809.519-1.65.984-2.523 1.39-1.07.498-1.174.946-.565 2.24 1.705 3.617 3.482 7.202 5.424 10.696 1.43 2.576 4.18 9.135 8.144 6.356Z"/><path fill="#fff" d="M65.833 69.45c-1.139-1.976-2.233-4.002-3.418-5.949-1.123-1.846-2.493-1.28-2.625.205-.075.835.16 1.745.42 2.541.773 2.378 2.157 4.648 3.379 6.812.788 1.395 1.387 3.479 3.02 4.144.72.293 1.475.377 1.694-.513.266-1.083-.296-2.436-.649-3.428-.48-1.35-1.108-2.575-1.82-3.812Z"/><defs><linearGradient id="a" x1="48.553" x2="48.553" y1="87.833" y2="13" gradientUnits="userSpaceOnUse"><stop stop-color="#2273FF"/><stop offset="1" stop-color="#7FBFFF"/></linearGradient></defs></svg>