<svg xmlns="http://www.w3.org/2000/svg" width="99" height="99" fill="none"><path fill="#fff" d="M0 0h99v99H0z"/><path fill="#fff" d="M16.3 58.7a81.5 81.5 0 0 0 1.08 1.898c.702 1.214 1.366 2.358 1.816 3.442.515 1.242.77 2.941 1.04 4.741l.112.744c.048.312.096.634.143.958.513 3.506 1.216 8.303 4.278 12.058.965 1.185 4.5 5.046 9.468 5.046 2.263 0 4.38-.797 6.12-2.307a12.207 12.207 0 0 0 2.125-2.396c.449.69.992 1.324 1.648 1.895 2.002 1.74 4.413 2.66 6.973 2.66 3.905 0 7.575-2.153 9.815-5.756 2.336-3.757 3.12-7.726 3.703-11.329 3.46-.501 6.391-2.137 8.65-3.597 5.439-3.505 9.535-8.57 11.535-14.267 1.08-3.076 1.27-6.2 1.437-8.955.025-.425.05-.845.08-1.258.264-3.78.401-7.836-.373-11.868-.695-3.625-3.468-6.758-6.899-7.798-.863-.262-1.686-.492-2.482-.716-2.38-.668-4.434-1.248-6.352-2.314l-.057-.028c-1.437-.782-3.064-1.595-4.942-2.024-3.573-3.013-7.902-4.539-12.902-4.539-3.397 0-6.753.703-9.298 1.315a1.043 1.043 0 0 1-.253.031c-.468 0-1.362-.29-2.308-.599a48.587 48.587 0 0 0-.899-.29 20.931 20.931 0 0 0-6.305-.99 21.1 21.1 0 0 0-5.215.669c-5.58 1.43-10.031 4.737-12.875 9.567-5.806 9.853-3.366 22.834-2.047 27.96.72 2.793 1.791 5.5 3.184 8.047Z"/><path fill="#C2C1C1" d="M17.76 62.212c.102.186.201.366.297.545a.468.468 0 0 0 .638.196.474.474 0 0 0 .193-.64 38.624 38.624 0 0 0-.306-.561.472.472 0 1 0-.822.46Zm1.424 3.35c.048.196.092.395.135.6a.47.47 0 1 0 .922-.193 18.251 18.251 0 0 0-.142-.63.47.47 0 0 0-.57-.347.473.473 0 0 0-.345.57Zm.646 3.683.053.35v.003l.041.27a.472.472 0 1 0 .932-.141 91.134 91.134 0 0 0-.042-.274l-.053-.35a.47.47 0 1 0-.931.142Zm.579 3.75c.036.209.074.417.114.628a.471.471 0 1 0 .926-.18c-.04-.205-.077-.41-.113-.611a.472.472 0 0 0-.546-.385.475.475 0 0 0-.381.549Zm.868 3.74c.062.204.127.41.195.61a.471.471 0 1 0 .894-.299 20.22 20.22 0 0 1-.188-.59.47.47 0 1 0-.9.278Zm1.457 3.58c.101.19.207.378.316.568a.473.473 0 0 0 .813-.48 15.408 15.408 0 0 1-.298-.532.47.47 0 1 0-.83.444Zm2.239 3.18c.134.146.284.303.448.47a.473.473 0 0 0 .666-.671 12.685 12.685 0 0 1-.422-.441.473.473 0 0 0-.692.643Zm2.947 2.529c.177.117.36.233.55.347.223.132.512.06.646-.164a.475.475 0 0 0-.163-.65 11.394 11.394 0 0 1-.514-.324.473.473 0 0 0-.52.79Zm3.536 1.652c.209.056.421.11.637.157a.473.473 0 0 0 .198-.927 8.83 8.83 0 0 1-.582-.145.475.475 0 0 0-.253.914Zm3.912.321c.22-.025.437-.06.652-.098a.473.473 0 0 0-.17-.93 9.127 9.127 0 0 1-.59.089.472.472 0 0 0 .108.94Zm3.734-1.242c.19-.11.376-.227.559-.35a.473.473 0 0 0-.525-.785 8.881 8.881 0 0 1-.506.319.473.473 0 0 0-.172.646.47.47 0 0 0 .644.17Zm2.973-2.55c.142-.17.278-.34.408-.51a.473.473 0 0 0-.75-.574 9.93 9.93 0 0 1-.378.473.472.472 0 1 0 .72.611Zm1.735.92.012.013c.161.139.326.274.492.404a.47.47 0 1 0 .58-.744 15.084 15.084 0 0 1-.455-.376l-.011-.009a.472.472 0 0 0-.618.712Zm3.34 2.043c.204.082.41.155.618.22a.471.471 0 0 0 .289-.898c-.19-.063-.379-.129-.565-.201a.47.47 0 1 0-.342.88Zm3.846.744h.107c.183 0 .366-.006.549-.013a.476.476 0 0 0 .447-.498.472.472 0 0 0-.494-.447 8.39 8.39 0 0 1-.502.012h-.098a.474.474 0 0 0-.01.946Zm3.859-.65c.205-.072.409-.15.61-.236a.473.473 0 0 0-.363-.873 9.307 9.307 0 0 1-.561.218.473.473 0 0 0 .314.892Zm3.416-1.897c.17-.132.337-.274.501-.416a.475.475 0 0 0 .046-.668.47.47 0 0 0-.665-.044c-.152.132-.307.261-.465.384a.475.475 0 0 0-.079.665.47.47 0 0 0 .661.079Zm2.664-2.85c.123-.176.243-.359.359-.542a.474.474 0 0 0-.148-.652.47.47 0 0 0-.65.148c-.108.173-.22.34-.334.507a.471.471 0 1 0 .773.539Zm1.854-3.391c.086-.199.168-.394.248-.593a.472.472 0 0 0-.873-.356 19.75 19.75 0 0 1-.239.57.471.471 0 1 0 .863.378Zm1.26-3.635c.057-.208.11-.413.162-.618a.472.472 0 1 0-.914-.23c-.05.199-.102.4-.156.6a.472.472 0 1 0 .909.248Zm.815-3.735c.037-.211.072-.42.107-.628a.47.47 0 0 0-.929-.158c-.034.206-.07.414-.106.619a.471.471 0 1 0 .928.167Zm2.271-1.479c.207-.063.412-.129.614-.198a.473.473 0 0 0-.303-.895c-.192.066-.386.129-.583.186a.474.474 0 0 0 .272.907Zm3.562-1.465c.192-.098.38-.199.565-.3a.472.472 0 0 0-.45-.829c-.178.098-.36.192-.545.287a.475.475 0 0 0-.204.637.469.469 0 0 0 .634.205Zm3.288-1.955c.177-.12.353-.24.527-.362a.474.474 0 0 0 .117-.66.47.47 0 0 0-.656-.116c-.169.12-.34.237-.511.35a.474.474 0 0 0 .523.788Zm3.045-2.326c.161-.139.32-.28.479-.422a.475.475 0 0 0 .034-.669.467.467 0 0 0-.665-.035 28.71 28.71 0 0 1-.464.41.476.476 0 0 0-.049.669.47.47 0 0 0 .665.047Zm2.732-2.689c.142-.16.283-.322.421-.482a.472.472 0 1 0-.715-.618c-.134.158-.27.315-.407.47a.471.471 0 0 0 .701.63Zm2.363-3.026c.12-.177.238-.356.353-.533a.472.472 0 1 0-.79-.517 23.44 23.44 0 0 1-.342.517.476.476 0 0 0 .124.659.47.47 0 0 0 .655-.126Zm1.931-3.323c.095-.192.187-.384.276-.58a.473.473 0 0 0-.23-.627.47.47 0 0 0-.625.23c-.086.19-.175.375-.266.561a.47.47 0 1 0 .846.416Zm1.435-3.574c.064-.208.123-.413.18-.618a.47.47 0 1 0-.909-.252c-.053.195-.11.394-.171.59a.473.473 0 0 0 .31.592.47.47 0 0 0 .59-.312Zm.816-3.767c.03-.211.058-.422.083-.634a.47.47 0 1 0-.935-.113c-.025.205-.052.41-.08.615a.475.475 0 0 0 .4.535.474.474 0 0 0 .532-.403Zm.358-3.802.038-.63a.472.472 0 1 0-.94-.057l-.039.627a.47.47 0 1 0 .94.06Zm.238-3.78c.009-.21.022-.421.031-.633a.473.473 0 0 0-.45-.495.473.473 0 0 0-.492.451l-.031.627a.473.473 0 0 0 .445.498.475.475 0 0 0 .497-.447Zm.097-3.81c0-.211-.003-.423-.01-.637a.469.469 0 0 0-.48-.46.47.47 0 0 0-.46.482c.004.208.007.416.008.624a.47.47 0 0 0 .475.467.47.47 0 0 0 .467-.476Zm-.204-3.82a30.31 30.31 0 0 0-.072-.634.472.472 0 1 0-.935.116c.026.205.05.41.07.615a.47.47 0 1 0 .937-.098Zm-.688-3.812a10.358 10.358 0 0 0-.221-.62.472.472 0 1 0-.877.343 9.2 9.2 0 0 1 .2.567.471.471 0 1 0 .898-.29Zm-1.862-3.46a9.312 9.312 0 0 0-.424-.502.467.467 0 0 0-.666-.035.474.474 0 0 0-.034.669c.134.148.264.302.389.457a.471.471 0 1 0 .736-.59Zm-2.958-2.582c-.19-.11-.382-.218-.579-.316a.473.473 0 0 0-.422.845c.178.091.353.186.525.287a.473.473 0 0 0 .476-.816Zm-3.625-1.372a64.625 64.625 0 0 1-.606-.17.47.47 0 0 0-.581.328.47.47 0 0 0 .326.58c.2.057.4.113.604.173a.473.473 0 0 0 .257-.91Zm-3.606-1.046a27.651 27.651 0 0 1-.589-.192.468.468 0 0 0-.597.296.474.474 0 0 0 .295.599l.606.198a.474.474 0 0 0 .285-.902Zm-3.408-1.387a5.961 5.961 0 0 1-.204-.11h-.003l-.057-.032h-.002c-.094-.054-.19-.104-.287-.158a.473.473 0 0 0-.443.836c.095.05.19.104.283.151h-.002l.058.031h-.003c.072.038.144.08.217.117a.47.47 0 0 0 .637-.195.474.474 0 0 0-.194-.64Zm-3.458-1.646c-.2-.075-.404-.148-.61-.214a.472.472 0 0 0-.292.898c.194.063.385.133.574.202a.472.472 0 1 0 .328-.886Zm-3.199-1.636c-.177-.12-.356-.24-.536-.356a.471.471 0 1 0-.508.795c.171.113.341.226.51.343a.474.474 0 0 0 .534-.782Zm-3.379-1.863a13.812 13.812 0 0 0-.596-.242.468.468 0 0 0-.61.27.474.474 0 0 0 .271.612c.19.073.38.148.567.23a.47.47 0 0 0 .617-.252.47.47 0 0 0-.249-.618Zm-3.678-1.153a21.25 21.25 0 0 0-.63-.123.474.474 0 0 0-.164.933c.202.034.403.075.602.116a.47.47 0 0 0 .557-.365.475.475 0 0 0-.364-.561Zm-3.818-.451c-.212-.006-.426-.01-.64-.01a.47.47 0 0 0-.474.47.475.475 0 0 0 .468.476c.206 0 .411.003.615.01a.473.473 0 0 0 .03-.946Zm-3.827.154c-.213.022-.424.048-.633.073a.473.473 0 0 0 .115.94c.204-.026.409-.051.615-.073a.47.47 0 0 0 .42-.517.47.47 0 0 0-.517-.423Zm-3.767.584a21.2 21.2 0 0 0-.62.126.47.47 0 0 0-.365.557.467.467 0 0 0 .558.366l.61-.123c.255-.05.421-.3.37-.555a.467.467 0 0 0-.553-.371Zm-3.477.463a12.827 12.827 0 0 1-.585-.17.471.471 0 0 0-.589.315.471.471 0 0 0 .312.59c.216.066.425.129.621.182a.472.472 0 0 0 .576-.337.476.476 0 0 0-.335-.58Zm-3.612-1.094a14.92 14.92 0 0 0-.625-.148.474.474 0 0 0-.203.924c.2.044.4.09.598.141a.472.472 0 0 0 .23-.917Zm-3.8-.605a23.249 23.249 0 0 0-.643-.032.47.47 0 0 0-.487.454.47.47 0 0 0 .454.489c.204.01.408.019.612.031a.473.473 0 0 0 .063-.942Zm-3.85.1c-.212.026-.424.054-.636.086a.473.473 0 0 0 .138.936c.203-.031.406-.057.61-.082a.473.473 0 0 0-.111-.94Zm-3.763.786c-.206.063-.41.126-.612.192a.474.474 0 0 0 .293.898c.194-.063.39-.126.587-.183a.474.474 0 0 0-.268-.907Zm-3.58 1.409c-.192.094-.382.192-.571.296a.474.474 0 0 0-.194.64.47.47 0 0 0 .638.192c.18-.098.362-.189.546-.28a.477.477 0 0 0 .213-.637.47.47 0 0 0-.631-.211Zm-3.277 2.027c-.172.129-.341.261-.508.397a.47.47 0 1 0 .59.734c.16-.126.32-.252.484-.375a.478.478 0 0 0 .093-.665.47.47 0 0 0-.66-.091Zm-2.846 2.603c-.143.161-.285.322-.424.486a.472.472 0 0 0 .717.611c.133-.154.268-.309.405-.46a.474.474 0 0 0-.032-.668.47.47 0 0 0-.666.031Zm-2.314 3.086c-.083.136-.165.271-.246.407l-.085.145a.473.473 0 0 0 .815.476c.027-.047.054-.091.08-.139.078-.132.157-.261.236-.39a.471.471 0 0 0-.8-.499Zm-1.75 3.433c-.081.199-.16.397-.237.596a.471.471 0 1 0 .879.34c.074-.192.15-.384.229-.573a.473.473 0 0 0-.254-.618.469.469 0 0 0-.616.255Zm-1.208 3.65c-.054.208-.105.413-.153.621a.47.47 0 1 0 .917.218c.047-.202.096-.404.148-.602a.47.47 0 1 0-.912-.236Zm-.725 3.767c-.028.215-.054.426-.078.637a.472.472 0 1 0 .936.107c.023-.205.049-.413.076-.618a.474.474 0 0 0-.405-.532.474.474 0 0 0-.529.406Zm-.306 3.818c-.007.214-.011.428-.015.64a.47.47 0 1 0 .942.015c.003-.208.008-.416.015-.624a.473.473 0 0 0-.456-.488.474.474 0 0 0-.486.457Zm.05 3.823c.011.215.024.426.039.637a.471.471 0 1 0 .94-.066 43.206 43.206 0 0 1-.039-.621.474.474 0 0 0-.496-.448.473.473 0 0 0-.445.498Zm.355 3.802c.028.214.056.422.086.63a.47.47 0 1 0 .933-.135 34.23 34.23 0 0 1-.085-.618.47.47 0 1 0-.934.123Zm.627 3.764.13.624a.472.472 0 0 0 .56.362.476.476 0 0 0 .361-.564c-.042-.199-.085-.4-.127-.612a.472.472 0 0 0-.556-.368.474.474 0 0 0-.368.557Zm.9 3.713c.059.205.12.41.183.611a.47.47 0 1 0 .9-.28 33.743 33.743 0 0 1-.18-.596.473.473 0 0 0-.584-.322.473.473 0 0 0-.32.587Zm1.267 3.615c.081.196.164.395.249.587a.471.471 0 1 0 .864-.375 39.32 39.32 0 0 1-.243-.574.47.47 0 1 0-.87.362Zm1.65 3.455.023.044c.103.19.206.372.308.555a.47.47 0 1 0 .821-.463c-.101-.18-.202-.363-.303-.549l-.023-.04a.47.47 0 0 0-.827.453Z"/><path fill="url(#a)" d="M21.804 55.662c1.088 1.989 2.317 3.852 3.19 5.954.906 2.185 1.206 4.63 1.562 6.95.501 3.27.895 7.31 3.073 9.984 1.458 1.787 4.383 3.902 6.618 1.96 2.469-2.143 2.48-5.686 2.408-8.722-.082-3.565-1.278-12.088 4.213-12.463 6.697-.458 1.594 17.403 5.375 20.688 2.459 2.14 5.679 1.015 7.346-1.668 2.74-4.407 2.672-9.762 3.858-14.692 3.75 1.336 6.862.104 10.43-2.197 4.084-2.636 7.386-6.45 9.005-11.062.934-2.654.98-5.778 1.175-8.558.235-3.36.364-6.913-.275-10.235-.238-1.242-1.323-2.582-2.547-2.954-3.542-1.075-6.751-1.711-10.059-3.55-1.436-.775-3.077-1.613-4.761-1.563-5.042-5.365-11.332-4.684-17.933-3.098-2.496.602-4.453-.234-6.807-.974-2.681-.848-5.362-.924-8.083-.227-13.15 3.37-13.124 19.234-10.396 29.839a28.443 28.443 0 0 0 2.608 6.588Z"/><path fill="#E8E7E6" d="M23.593 25.035c2.59-2.916 6.89-4.533 10.72-4.268 2.413.164 4.615 1.39 6.966 1.847 2.168.422 4.439-.438 6.519-.94 4.524-1.093 8.858-.598 12.31 2.409-2.282.857-4.35 2.3-6.648 3.146-1.976.725-5.03.56-6.614 2.055-1.585 1.494-1.62 3.221-1.793 5.315-.48 5.863-.263 13.094 2.357 18.475 2.067 4.243 6.11 7.553 10.202 9.746-1.015 3.982-1.21 8.124-2.493 12.045-.55 1.68-1.49 3.036-2.948 4.032-2.436 1.66-3.274-1.595-3.567-2.815-.59-2.462-.151-5.258-.047-7.758.188-4.463-.55-11.348-6.445-10.944-6.36.435-5.633 10.31-5.444 14.408.085 1.822.294 8.893-3.776 7.109-2.419-1.06-3.187-4.517-3.728-6.825-.938-4.006-1.046-8.076-2.642-11.918-1.24-2.989-3.29-5.545-4.453-8.574-.98-2.56-1.55-5.28-1.962-7.985-.929-6.08-.815-13.715 3.486-18.56Z"/><path fill="#fff" d="M76.201 36.625a70.879 70.879 0 0 1-.352 7.723c-.445 4.398-1.616 8.042-4.913 11.128-1.694 1.588-3.843 3.366-6.14 4.334-1.65.69-2.181.823-3.982.16-2.847-1.049-5.648-3.322-7.501-5.45-3.042-3.489-3.794-7.218-4.12-11.75-.216-2.999-.308-5.974-.06-8.972.133-1.61 1.592-1.661 2.866-1.977 2.532-.627 4.952-1.528 7.233-2.811.922-.52 2.33-1.599 3.492-1.432 2.32.341 4.4 2.213 6.583 3.042 1.083.413 2.178.788 3.305 1.063.857.208 2.04.249 2.808.703 1.15.674.772 3.202.781 4.24Zm1.402-5.175c-1.174-1.677-4.622-1.64-6.417-2.299-1.748-.642-3.383-1.424-5.013-2.329-3.333-1.806-5.062-1.037-8.22.58-1.56.8-3.16 1.563-4.853 2.033-2.585.722-5.69.656-5.961 3.96a52.194 52.194 0 0 0-.106 7.234c.276 4.788.47 9.705 3.482 13.674 2.323 3.058 5.452 5.665 8.971 7.231 7.904 3.518 17.125-7.35 18.084-14.465.393-2.92.643-5.904.648-8.855.004-1.787.457-5.23-.615-6.764Z"/><path fill="#42F2A6" d="M57.041 31.418c1.481-.659 4.138-2.862 5.765-2.626 1.76.255 3.733 1.92 5.375 2.648 1.328.59 2.712 1.024 4.114 1.396.696.187 1.404.328 2.109.477.86.18.586 2.717.605 3.312.07 2.305-.102 4.618-.282 6.916-.353 4.495-1.403 7.862-4.635 11.09-1.897 1.894-4.776 4.079-7.509 4.602-2.791-.59-5.482-2.71-7.502-4.602-3.315-3.105-4.248-6.692-4.635-11.09a76.701 76.701 0 0 1-.289-6.023c-.008-.93.04-1.86.092-2.787.1-1.784 1.5-1.614 2.738-1.923 1.382-.34 2.754-.81 4.054-1.39Z"/><path fill="#C6C5C3" d="M23.593 25.035c-4.3 4.845-4.415 12.48-3.486 18.56.413 2.705.981 5.425 1.962 7.985 1.163 3.029 3.213 5.585 4.453 8.574 1.596 3.842 1.704 7.912 2.643 11.918.54 2.308 1.308 5.766 3.727 6.825 4.07 1.784 3.86-5.287 3.776-7.109-.189-4.097-.916-13.973 5.444-14.408 5.896-.404 6.633 6.48 6.445 10.944-.104 2.5-.544 5.296.047 7.758.293 1.22 1.131 4.476 3.567 2.815 1.457-.996 2.398-2.352 2.948-4.032 1.283-3.921 1.478-8.063 2.493-12.045-.306-.163-.61-.337-.915-.513-.666 4.45-2.173 10.957-2.98 12.57-1.823 3.657-3.446 2.81-3.819-.73-.319-3.024.22-6.056.23-9.08.014-4.712-2.47-9.188-7.663-9.043-2.034.057-4.183 1.252-5.35 2.92-1.357 1.938-1.627 4.21-1.719 6.524-.099 2.516.012 5.18-.251 7.723-.38 3.657-1.668 6.692-4.113-.615-1.426-4.258-1.774-8.715-3.588-12.86-1.542-3.525-3.705-6.737-5.015-10.368-1.254-3.477-1.653-7.206-1.707-10.879-.071-4.854.734-9.664 3.111-13.686-.08.085-.163.167-.24.252Z"/><path fill="#F7F7F7" d="M41.961 25.832c-3.625-.12-7.175-1.582-10.775-.198-3.3 1.267-5.082 4.293-5.926 7.565-1.888 7.323.487 15.09 4.113 21.612 1.377 2.477 2.39 1.197 3.272.022.461-.615 1.049-1.16 1.797-1.668 1.652-1.125 3.817-.99 5.55-1.954 2.276-1.267 2.072-4.697 1.881-6.872-.262-3.001-.742-5.98-.937-8.987-.177-2.755-.031-5.81 1.613-7.988.915-1.213.814-1.485-.588-1.532Z"/><path fill="#42F2A6" d="M70.092 54.63c3.232-3.227 4.282-6.594 4.635-11.089.18-2.279.347-4.577.282-6.868-.538 6.197-.96 9.67-3.007 13.964-1.302 2.727-3.683 4.725-6.853 6.547-1.598.92-2.802 1.09-4.427.19-2.18-1.211-4.11-2.819-5.866-4.52-2.566-2.488-3.529-6.182-4.09-9.596-.31-1.879-.528-3.805-.583-5.712-.007-.25-.01-.498-.014-.75-.004.242-.014.482-.012.721.019 2.012.113 4.02.29 6.024.386 4.398 1.319 7.985 4.634 11.09 2.02 1.891 4.71 4.013 7.502 4.602 2.733-.523 5.612-2.708 7.51-4.602Z"/><path fill="#71FFC1" d="M72.211 37.58c-.356-1.954-1.012-2.66-3.241-2.99-1.86-.278-2.829-.984-4.102-1.785-.375-.236-.74-.492-1.093-.776-.494-.564-1.388-.983-2.249 0a11.48 11.48 0 0 1-1.092.776c-1.274.8-2.243 1.507-4.102 1.784-2.23.331-2.885 1.037-3.241 2.992-.42 2.307-.107 5.361.357 7.158.818 3.171 3.326 7.213 6.51 8.606 1.806.788 3.548.8 5.386 0 3.184-1.393 5.691-5.435 6.51-8.606.463-1.796.777-4.851.357-7.158Z"/><path fill="#fff" d="M49.193 42.77c-.216-2.999-.308-5.974-.06-8.972.133-1.61 1.592-1.661 2.866-1.977 2.532-.627 4.952-1.528 7.233-2.811.922-.52 2.33-1.599 3.492-1.432 2.32.341 4.4 2.213 6.583 3.042 1.083.413 2.178.788 3.305 1.063.857.208 2.04.249 2.808.703 1.15.674.772 3.202.781 4.24a70.879 70.879 0 0 1-.352 7.722c-.248 2.456-.724 4.675-1.67 6.696 1.346-2.08 1.89-4.621 2.192-7.127.272-2.26.475-4.55.59-6.822.066-1.302.334-3.811-.706-4.876-1.08-1.11-2.823-1.038-4.239-1.441-2.413-.69-4.595-1.882-6.826-2.998-1.458-.728-2.839-.983-4.38-.397-.873.331-1.693.974-2.508 1.431a33.792 33.792 0 0 1-4.024 1.901c-1.432.567-3.497.495-4.724 1.466-1.167.92-1.115 2.386-1.174 3.757-.177 4.108.315 8.4 1.63 12.316-.453-1.709-.676-3.521-.817-5.485Z"/><path fill="#fff" d="M50.515 54.303c2.323 3.058 5.452 5.665 8.971 7.231 7.743 3.446 16.744-6.913 18.01-14.02-1.89 6.215-6.632 11.99-12.539 13.885-4.617 1.484-9.645-2.746-12.57-5.876-2.111-2.257-3.586-4.917-4.642-7.767.459 2.33 1.26 4.558 2.77 6.547Z"/><defs><linearGradient id="a" x1="49" x2="49" y1="88" y2="12" gradientUnits="userSpaceOnUse"><stop stop-color="#2273FF"/><stop offset="1" stop-color="#7FBFFF"/></linearGradient></defs></svg>