<svg xmlns="http://www.w3.org/2000/svg" width="99" height="99" fill="none"><path fill="#fff" d="M0 0h99v99H0z"/><path fill="#fff" d="M75.974 23.6c-2.792-5.28-8.419-9.085-14.337-9.702-.755-.08-1.53-.119-2.303-.119-1.97 0-3.987.248-6.352.776-.556.125-1.084.266-1.549.392-.634.169-1.42.38-1.772.39-.786-.16-1.608-.399-2.476-.653-1.975-.577-4.213-1.23-6.946-1.23-.66 0-1.328.04-1.982.12-5.763.686-11.432 4.237-14.795 9.26-6.094 9.1-3.91 21.591-2.22 27.837-1.083 2.732-1.207 5.81-.222 8.392 1.18 3.094 3.85 5.256 7.127 5.774.088.015.173.024.253.037.129.018.27.036.423.049.326.03.657.058.994.082.313 4.738 1.15 9.969 3.805 14.108 4.304 6.709 14.703 7.39 15.875 7.445.217.009.44.015.67.015 4.585 0 12.527-2.315 15.828-7.46 2.654-4.14 3.491-9.367 3.804-14.101 1.975-.148 4.533-.605 6.692-2.886 3.052-3.22 3.194-7.85 1.635-11.605 1.504-6.166 2.978-17.223-2.152-26.921Z"/><path fill="#C2C1C1" d="M74.277 20.264c-.134-.16-.27-.319-.41-.472a.454.454 0 0 0-.644-.037.463.463 0 0 0-.034.65c.132.15.262.3.39.45.162.197.45.221.642.059a.465.465 0 0 0 .056-.65Zm-2.672-2.628c-.161-.132-.325-.26-.491-.386a.454.454 0 0 0-.64.092.462.462 0 0 0 .09.644c.159.12.315.242.47.368.196.16.483.125.64-.07a.463.463 0 0 0-.069-.648Zm-3.115-2.07a19.565 19.565 0 0 0-.554-.288.455.455 0 0 0-.612.212.463.463 0 0 0 .208.616c.178.086.355.178.53.273a.458.458 0 0 0 .617-.19.462.462 0 0 0-.189-.623Zm-3.45-1.44a19.3 19.3 0 0 0-.6-.172.456.456 0 0 0-.56.325.463.463 0 0 0 .324.564c.191.049.381.104.57.162a.457.457 0 0 0 .57-.306.46.46 0 0 0-.304-.574Zm-3.67-.715a62.186 62.186 0 0 0-.62-.05.458.458 0 0 0-.483.433.458.458 0 0 0 .427.488c.2.012.398.027.594.043a.455.455 0 0 0 .495-.417.457.457 0 0 0-.414-.497Zm-3.719-.034c-.205.016-.41.03-.617.052a.456.456 0 0 0-.413.5.456.456 0 0 0 .497.414c.2-.018.398-.034.595-.046a.46.46 0 0 0-.062-.92Zm-3.671.5c-.2.037-.4.08-.604.123a.46.46 0 0 0 .188.898l.59-.12a.457.457 0 0 0 .36-.536.455.455 0 0 0-.534-.365Zm-3.57.859a7.915 7.915 0 0 1-.561.12.457.457 0 0 0-.38.524c.039.25.273.423.521.383.19-.03.405-.077.631-.132a.458.458 0 0 0 .339-.552.457.457 0 0 0-.55-.343Zm-3.313-.555c-.192-.056-.388-.114-.587-.169a.459.459 0 0 0-.248.883c.196.055.39.114.582.169.242.07.495-.07.565-.313a.46.46 0 0 0-.312-.57Zm-3.59-.89a18.467 18.467 0 0 0-.615-.098.455.455 0 0 0-.517.387.458.458 0 0 0 .386.52c.198.032.394.062.587.099a.46.46 0 0 0 .529-.374.46.46 0 0 0-.37-.534Zm-3.726-.29c-.208.005-.416.014-.624.027a.462.462 0 0 0-.427.49.459.459 0 0 0 .484.43c.197-.013.394-.022.591-.028a.458.458 0 0 0 .444-.472.458.458 0 0 0-.468-.448Zm-3.706.496c-.201.049-.402.098-.603.153a.461.461 0 0 0-.322.564c.066.246.317.39.56.325.191-.052.383-.1.575-.147a.461.461 0 0 0 .34-.555.457.457 0 0 0-.55-.34Zm-3.534 1.193c-.189.082-.377.171-.565.26a.459.459 0 0 0 .39.831c.179-.086.36-.168.541-.248a.46.46 0 0 0-.366-.843Zm-3.273 1.787c-.173.114-.345.23-.515.35a.463.463 0 0 0-.114.64.451.451 0 0 0 .635.114c.163-.113.328-.224.494-.334a.463.463 0 0 0 .132-.638.453.453 0 0 0-.632-.132Zm-2.937 2.306c-.152.141-.302.285-.45.43a.462.462 0 0 0-.01.65c.177.18.466.186.646.008.143-.14.287-.279.433-.413a.463.463 0 0 0 .026-.65.451.451 0 0 0-.645-.025Zm-2.515 2.769c-.126.165-.25.334-.372.503a.46.46 0 0 0 .104.64c.204.15.49.102.637-.104.116-.162.234-.322.355-.481a.461.461 0 0 0-.084-.644.455.455 0 0 0-.64.086Zm-1.996 3.173c-.095.184-.188.371-.278.561a.456.456 0 1 0 .822.399c.087-.181.176-.359.267-.54a.461.461 0 0 0-.196-.62.455.455 0 0 0-.615.2Zm-1.431 3.459c-.065.2-.127.398-.186.598a.457.457 0 1 0 .875.264c.056-.19.116-.384.178-.574a.459.459 0 0 0-.292-.58.455.455 0 0 0-.575.292Zm-.902 3.63c-.037.206-.071.408-.104.613a.46.46 0 0 0 .38.528.458.458 0 0 0 .522-.383c.031-.2.065-.396.1-.595a.457.457 0 1 0-.898-.163Zm-.439 3.704a35.05 35.05 0 0 0-.033.623.457.457 0 1 0 .912.04c.009-.2.02-.402.032-.605a.457.457 0 0 0-.427-.487.459.459 0 0 0-.484.43ZM19 39.243c.007.206.016.414.026.62a.457.457 0 1 0 .912-.046 41.11 41.11 0 0 1-.025-.607.458.458 0 1 0-.913.033Zm.281 3.704c.024.206.05.411.076.617a.455.455 0 1 0 .905-.12c-.026-.2-.05-.402-.074-.604a.456.456 0 1 0-.907.107Zm.562 3.67.118.608c.05.248.292.407.538.358a.46.46 0 0 0 .357-.542 57.06 57.06 0 0 1-.116-.595.458.458 0 0 0-.534-.368.461.461 0 0 0-.363.54Zm.812 3.619.146.555.441-.12-.424-.172-.017.043a.458.458 0 0 0 .257.595c.235.095.5-.021.592-.257l.016-.04a.46.46 0 0 0 .016-.292 60.7 60.7 0 0 1-.144-.545.456.456 0 1 0-.883.233Zm-.649 3.373a13.97 13.97 0 0 0-.069.631.456.456 0 1 0 .91.08c.016-.196.038-.393.064-.589a.462.462 0 0 0-.392-.518.458.458 0 0 0-.513.395Zm.082 3.81c.039.21.084.418.135.626a.457.457 0 1 0 .886-.224c-.047-.19-.088-.38-.124-.573a.459.459 0 0 0-.533-.368.463.463 0 0 0-.364.54Zm1.386 3.567c.115.18.236.358.363.53.15.206.435.248.638.098a.463.463 0 0 0 .095-.644 9.576 9.576 0 0 1-.327-.478.453.453 0 0 0-.63-.141.461.461 0 0 0-.139.635Zm2.658 2.75c.176.12.357.236.541.343a.456.456 0 0 0 .625-.165.46.46 0 0 0-.165-.629 9.327 9.327 0 0 1-.489-.31.452.452 0 0 0-.634.123.461.461 0 0 0 .122.638Zm3.513 1.478c.143.028.286.055.43.077.07.012.137.021.202.03a.46.46 0 0 0 .117-.913c-.057-.007-.115-.016-.176-.025a15.253 15.253 0 0 1-.392-.07.455.455 0 0 0-.538.358c-.05.249.11.49.357.543Zm1.84 1.398c.019.203.038.408.06.613.026.255.25.436.5.411a.461.461 0 0 0 .408-.506 51.6 51.6 0 0 1-.06-.604.46.46 0 0 0-.496-.417.461.461 0 0 0-.412.503Zm.48 3.683c.036.205.073.407.112.61a.455.455 0 0 0 .535.365.461.461 0 0 0 .362-.54 31.225 31.225 0 0 1-.11-.595.457.457 0 0 0-.529-.374.462.462 0 0 0-.37.534Zm.845 3.633c.06.2.122.399.186.595a.455.455 0 0 0 .576.294.46.46 0 0 0 .292-.58 31.51 31.51 0 0 1-.18-.573.455.455 0 0 0-.568-.31.462.462 0 0 0-.306.574Zm1.346 3.499c.091.186.185.374.282.557.118.224.395.31.617.19a.459.459 0 0 0 .19-.619 24.93 24.93 0 0 1-.27-.533.452.452 0 0 0-.61-.212.462.462 0 0 0-.21.617Zm2.01 3.191c.136.163.276.322.42.476a.454.454 0 0 0 .645.021.462.462 0 0 0 .02-.65 12.764 12.764 0 0 1-.389-.441.453.453 0 0 0-.643-.053.46.46 0 0 0-.053.647Zm2.812 2.52c.174.12.349.234.526.347a.455.455 0 0 0 .629-.147.463.463 0 0 0-.145-.635 16.215 16.215 0 0 1-.496-.325.454.454 0 0 0-.634.12.464.464 0 0 0 .12.64Zm3.294 1.785c.192.08.384.16.575.233.235.095.5-.024.591-.26a.46.46 0 0 0-.26-.595c-.183-.074-.368-.147-.552-.227a.457.457 0 0 0-.598.245.464.464 0 0 0 .244.604Zm3.525 1.187c.203.055.404.104.601.15a.457.457 0 0 0 .55-.34.461.461 0 0 0-.34-.555c-.191-.046-.386-.092-.582-.144a.454.454 0 0 0-.556.33.457.457 0 0 0 .327.559Zm3.643.711c.218.03.424.055.614.077a.459.459 0 0 0 .101-.914 44.335 44.335 0 0 1-.596-.073.457.457 0 0 0-.512.395.457.457 0 0 0 .393.515Zm3.736.178c.203-.012.41-.027.621-.049a.46.46 0 0 0 .411-.503.458.458 0 0 0-.497-.414c-.202.022-.4.037-.593.05a.457.457 0 0 0-.427.487.457.457 0 0 0 .485.43Zm3.683-.561c.2-.05.4-.098.602-.15a.457.457 0 0 0 .328-.558.454.454 0 0 0-.556-.331c-.194.049-.388.098-.58.144a.46.46 0 0 0 .207.895Zm3.549-1.107c.192-.077.383-.153.574-.236a.46.46 0 0 0 .243-.601.454.454 0 0 0-.598-.245c-.183.076-.367.153-.552.224a.465.465 0 0 0-.259.597.456.456 0 0 0 .592.261Zm3.347-1.65c.18-.107.356-.22.53-.334a.463.463 0 0 0 .134-.637.456.456 0 0 0-.632-.135c-.165.11-.333.217-.503.319a.462.462 0 0 0-.155.631c.13.218.41.288.627.156Zm2.978-2.3c.15-.15.296-.3.438-.456a.462.462 0 0 0-.027-.65.454.454 0 0 0-.644.028c-.132.144-.268.285-.408.423a.466.466 0 0 0-.004.653c.177.18.466.18.645.003Zm2.253-3.04c.102-.182.2-.369.295-.553a.462.462 0 0 0-.197-.62.456.456 0 0 0-.615.197c-.09.178-.184.356-.28.528a.461.461 0 0 0 .177.625.45.45 0 0 0 .62-.178Zm1.507-3.435c.068-.196.132-.392.195-.592a.46.46 0 0 0-.297-.576.452.452 0 0 0-.573.297c-.06.19-.123.384-.188.57a.461.461 0 0 0 .283.586.454.454 0 0 0 .58-.285Zm.968-3.606c.042-.202.081-.407.12-.61a.456.456 0 1 0-.897-.169c-.038.197-.076.396-.117.592a.461.461 0 0 0 .355.546.46.46 0 0 0 .54-.359Zm.568-3.676c.023-.209.045-.414.065-.616a.462.462 0 0 0-.409-.506.458.458 0 0 0-.5.414c-.02.199-.04.401-.063.604a.458.458 0 0 0 .403.509.458.458 0 0 0 .504-.405Zm.931-2.272c.204-.028.411-.065.622-.104a.459.459 0 0 0-.17-.902 13.79 13.79 0 0 1-.58.095.457.457 0 0 0-.387.519c.035.25.265.429.515.392Zm3.617-1.16c.184-.1.367-.21.55-.33a.461.461 0 0 0 .136-.635.453.453 0 0 0-.63-.138 8 8 0 0 1-.496.297.463.463 0 0 0-.18.626c.121.22.399.304.62.18Zm2.89-2.501c.131-.169.257-.344.375-.518a.457.457 0 1 0-.755-.518c-.108.159-.221.315-.34.472a.46.46 0 0 0 .08.644.452.452 0 0 0 .64-.08Zm1.704-3.428c.056-.206.107-.414.15-.622a.46.46 0 0 0-.351-.546.458.458 0 0 0-.54.355c-.041.19-.087.38-.139.568a.457.457 0 1 0 .88.245Zm.359-3.799a12.714 12.714 0 0 0-.061-.635.458.458 0 0 0-.509-.401.46.46 0 0 0-.397.512c.023.196.042.392.056.588a.459.459 0 0 0 .487.427.46.46 0 0 0 .424-.491Zm-.82-3.71a12.666 12.666 0 0 0-.163-.411l-.42.178.442.11.045-.184a.458.458 0 0 0-.337-.555.455.455 0 0 0-.55.338l-.044.18a.467.467 0 0 0 .022.289c.052.125.103.254.151.38.09.24.354.359.59.267a.46.46 0 0 0 .264-.592Zm.535-3.333c.036-.202.071-.405.105-.61a.457.457 0 1 0-.9-.153l-.103.6a.461.461 0 0 0 .369.534.459.459 0 0 0 .53-.371Zm.516-3.68c.02-.202.04-.407.059-.616a.457.457 0 1 0-.91-.08c-.017.203-.037.405-.057.605a.457.457 0 1 0 .908.092Zm.23-3.706c.005-.206.008-.414.009-.62a.457.457 0 1 0-.913-.006c-.001.202-.004.405-.008.604a.46.46 0 0 0 .446.472.46.46 0 0 0 .466-.45Zm-.086-3.72a42.13 42.13 0 0 0-.047-.62.46.46 0 0 0-.494-.42.462.462 0 0 0-.416.5c.017.203.033.402.047.605a.458.458 0 0 0 .486.426.458.458 0 0 0 .424-.49Zm-.44-3.697a30.296 30.296 0 0 0-.11-.61.454.454 0 0 0-.535-.366.457.457 0 0 0-.362.537c.038.2.073.399.107.595a.456.456 0 1 0 .9-.157Zm-.833-3.634a31.23 31.23 0 0 0-.179-.595.455.455 0 0 0-.572-.3.46.46 0 0 0-.299.576c.06.193.118.387.174.577a.456.456 0 1 0 .876-.258Zm-1.256-3.51c-.081-.19-.165-.38-.252-.571a.454.454 0 0 0-.605-.224.458.458 0 0 0-.224.607c.083.184.165.368.244.552.1.233.368.34.6.24a.46.46 0 0 0 .237-.605Zm-1-2.092a17.297 17.297 0 0 0-.303-.549.456.456 0 1 0-.79.46c.1.172.195.347.288.521.119.224.395.31.617.19a.462.462 0 0 0 .189-.622Z"/><path fill="url(#a)" d="M29.107 58.781c.037.006.071.003.108.006a.705.705 0 0 0 .148.028 96.28 96.28 0 0 0 6.321.34c.133 5.225.206 12.194 3.049 16.628 1.995 3.112 7.71 4.492 11.049 4.648 3.236.154 9.208-1.695 11.102-4.648 2.844-4.434 2.916-11.406 3.048-16.63 1.29-.038 2.578-.09 3.862-.166 2-.123 3.305-.05 4.296-1.095 1.478-1.56 1.028-4.698-.494-6.559 2.362-7.772 2.9-17.49-.992-24.851-1.846-3.49-5.696-6.08-9.59-6.485-2.29-.236-4.47.043-6.707.543-1.89.426-3.796 1.208-5.753.825-3.35-.653-6.041-2.125-9.58-1.702-4.135.494-8.164 3.158-10.468 6.601-4.625 6.905-3.156 17.686-.703 25.1-1.934 2.404-2.101 6.877 1.304 7.417Z"/><path fill="#42F2A6" d="M37.66 60.578c-.044-1.15.225-1.377 1.43-1.37 3.548.018 7.1-.053 10.623-.053 1.936 0 3.881.022 5.83.04-4.897 2.29-10.04 4.066-15.342 5.093-1.519.294-2.309.193-2.387-.895a90.852 90.852 0 0 1-.153-2.815Zm22.508 12.154c-1.037 3.986-6.839 5.608-10.386 5.758-1.63.07-3.6-.319-5.397-1.094a71.074 71.074 0 0 0 14.98-5.942c1.315-.703 1.242-.408.803 1.278Zm1.403-7.629c-.084.73-.18 1.454-.29 2.178-.227 1.502-.707 2.189-1.867 2.823a70.026 70.026 0 0 1-14.733 6.004c-1.136.319-2.146.396-3.14-.445-.8-.677-1.452-1.462-1.863-2.348-.402-.868-.07-1.285 1.084-1.515 6.844-1.377 13.456-3.906 19.566-7.304.996-.555 1.373-.524 1.243.608Zm.357-4.249c-.062 1.183-.2 1.502-1.378 2.177-6.006 3.437-12.506 6.016-19.263 7.472-1.587.34-2.404.45-2.749-1.312a39.349 39.349 0 0 1-.331-1.966c-.168-1.177.383-1.477 1.064-1.597 6.58-1.147 12.912-3.407 18.887-6.42 1.28.006 2.56.002 3.84-.016-.018.555-.04 1.11-.07 1.662Z"/><path fill="#fff" d="M69.871 56.89c-6.67.582-13.468.324-20.158.324-6.692 0-13.494.258-20.164-.325-1.086-.224-1.196-1.422-1.134-2.391.083-1.31.883-2.478 2.175-2.723 6.339-.644 12.759-.512 19.123-.512 6.364-.003 12.786-.135 19.126.512 1.274.24 1.873 1.245 2.134 2.468.213.997.026 2.413-1.102 2.646Z"/><path fill="#E8E7E6" d="M29.48 28.478c1.893-4.09 6.555-6.767 10.931-7 2.844-.153 5.373 1.319 8.092 1.849 2.565.5 5.338-.739 7.818-1.233 5.015-.993 9.96.893 12.62 5.37 3.557 5.981 3.045 14.702 1.316 21.478-.244.956-.32 1.002-1.236.91-6.398-.668-12.882-.53-19.308-.53-6.427 0-12.91-.138-19.31.53-.676.068-1.042.099-1.366-1.057-1.828-6.525-2.407-14.16.443-20.317Z"/><path fill="#C6C5C3" d="M30.404 49.852c6.399-.668 12.882-.53 19.309-.53 6.426 0 12.91-.138 19.308.53.917.092.992.046 1.236-.91 1.73-6.776 2.24-15.497-1.316-21.479a11.754 11.754 0 0 0-.762-1.116c.848 1.757 1.393 3.652 1.622 5.734.419 3.811-.046 8.006-.984 11.707-.852 3.36-1.828 4.032-5.505 3.832-1.117-.058-2.235-.12-3.352-.178-3.586-.184-7.174-.33-10.765-.355-3.783-.028-7.537.319-11.314.383-2.155.037-4.613-.006-6.34-1.466-1.207-1.024-1.724-2.689-2.05-4.182-1.234-5.657-.238-12.108 2.864-17.066-1.207 1.04-2.212 2.29-2.875 3.722-2.85 6.157-2.271 13.792-.443 20.317.324 1.156.69 1.125 1.367 1.057Z"/><path fill="#F7F7F7" d="M65.83 32.532c-.49-2.953-2.01-6.556-5.227-7.15-2.365-.44-4.49.579-6.633 1.413-3.572 1.389-4.592.772-8.828-.957-1.47-.6-2.903-.757-4.453-.386-2.852.684-4.97 3.299-6.282 5.783-1.31 2.48-1.908 5.602-1.25 8.361.78 3.284 4.495 3.637 7.276 3.683 3.3.055 6.606.049 9.907.067 3.608.022 7.359.153 10.94-.374 1.957-.288 3.864-.908 4.618-2.91.828-2.198.305-5.295-.067-7.53Z"/><path fill="#42F2A6" d="M41.287 70.503c6.757-1.456 13.257-4.035 19.263-7.472 1.178-.675 1.316-.994 1.378-2.177.016-.304.027-.61.039-.917-2.682 2.52-6.02 3.8-9.54 5.145a95.184 95.184 0 0 1-6.918 2.367c-2.428.72-4.998 1.457-7.234.178.08.524.162 1.046.263 1.564.345 1.763 1.162 1.652 2.75 1.312Zm12.684 6.043c-1.61.47-3.337.773-5.01.8-.946.016-1.855-.199-2.75-.471-.607.18-1.215.355-1.826.52 1.797.776 3.767 1.166 5.397 1.095 3.312-.14 8.588-1.566 10.117-4.997a17.274 17.274 0 0 1-5.928 3.053Z"/><path fill="#fff" d="M49.713 57.214c6.69 0 13.488.258 20.158-.325 1.128-.233 1.316-1.65 1.102-2.646a4.85 4.85 0 0 0-.268-.877c-.294.859-.945 1.546-2.134 1.975-1.772.638-3.81.558-5.663.521-3.85-.08-7.7-.018-11.55.022-4.531.042-9.063.095-13.593.088-1.442 0-2.887 0-4.328-.06a11.569 11.569 0 0 1-2.728-.44c-1.375-.4-1.92-1.28-1.9-2.36a3.35 3.35 0 0 0-.394 1.386c-.062.969.048 2.168 1.134 2.391 6.67.583 13.472.325 20.164.325Z"/><path fill="#fff" d="M63.642 54.151c4.295-.132 5.837-1.674.345-1.882-7.507-.286-22.685-.105-28.839.147-5.344.22-5.223 1.41.033 1.668 3.183.156 25.306.165 28.46.067Z"/><path fill="#6EFFC0" d="M57.644 60.372c-4.869 2.23-9.183 3.977-15.928 5.523-2.255.515-2.752 1.695.142 1.33 1.05-.131 2.37-.45 3.668-.81 4.362-1.21 9.132-2.719 13.044-5.065 1.677-1.005.889-1.809-.926-.978Zm.416 12.588c-2.355 1.333-4.126 1.91-7.723 3.111-.92.31-.916.567.112.417 2.875-.42 8.036-2.382 8.293-3.271.152-.528-.188-.537-.681-.258Z"/><path fill="#42F2A6" d="M61.281 67.28c-2.126 1.776-4.655 3.002-7.294 4.189-2.414 1.082-4.885 2.024-7.448 2.677-2.454.622-4.64.812-6.658-.46.41.733.976 1.398 1.66 1.977.994.84 2.004.764 3.14.445a70.026 70.026 0 0 0 14.733-6.004c1.16-.634 1.64-1.321 1.867-2.823Zm-23.467-3.887c.078 1.088.868 1.19 2.387.895 3.895-.757 7.703-1.916 11.394-3.388-.938.205-1.874.398-2.803.589a83.635 83.635 0 0 1-6.854 1.128c-1.594.193-3.103.193-4.206-.742.027.506.047 1.009.082 1.518Z"/><path fill="#6EFFC0" d="M48.322 59.916c-1.612-.053-3.248.06-4.845-.019-.234-.012-5.016-.242-4.096 1.41.55.985 5.796-.107 8.94-.784 1.37-.295 1.265-.565.001-.607Zm10.552 6.252c-2.493 1.48-5.215 2.603-7.912 3.627-2.73 1.036-5.56 1.956-8.438 2.517-1.246.242-.817.62-.305.797 2.743.948 6.552-.674 8.954-1.588 2.882-1.098 6.446-2.254 8.236-4.946.606-.913.413-.972-.535-.407Z"/><defs><linearGradient id="a" x1="49.5" x2="49.5" y1="87" y2="13" gradientUnits="userSpaceOnUse"><stop stop-color="#2273FF"/><stop offset="1" stop-color="#8EC7FF"/></linearGradient></defs></svg>