<svg xmlns="http://www.w3.org/2000/svg" width="99" height="99" fill="none"><path fill="#fff" d="M0 0h99v99H0z"/><path fill="#fff" d="M18.027 53.874c.905 2.674 2.229 4.968 3.394 6.991.457.792.889 1.539 1.277 2.274.678 1.277 1.041 3.74 1.393 6.12.867 5.86 2.05 13.887 9.932 17.326 1.47.64 2.937.965 4.36.966a8.94 8.94 0 0 0 6.482-2.761 10.462 10.462 0 0 0 1.455-1.917c1.663 2.468 4.087 4.07 6.933 4.383.404.045.818.067 1.221.067 4.945 0 9.352-3.295 11.502-8.601 1.296-3.194 1.815-6.412 2.272-9.25.245-1.52.475-2.956.802-4.29.363-1.485 1.261-3.058 2.303-4.88a64.6 64.6 0 0 0 .621-1.094c3.34-.713 5.578-2.95 6.405-3.776 3.3-3.3 4.575-6.855 3.782-10.567a11.751 11.751 0 0 0-1.526-3.749c.939-1.532 1.877-3.84 1.557-6.833-.547-5.109-4.574-9.561-9.42-10.932-3.729-6.103-9.916-9.643-17.17-9.643-.925 0-1.873.06-2.818.174-1.464.183-2.79.535-3.96.845-1.025.274-2.084.553-2.718.553h-.078c-.333-.015-1.25-.341-1.918-.58-1.243-.445-2.787-.995-4.565-1.216a19.723 19.723 0 0 0-2.39-.146c-7.53 0-14.79 4.26-18.497 10.852-2.952 5.253-3.875 12.142-2.744 20.478.454 3.325 1.144 6.336 2.114 9.206Z"/><path fill="#C2C1C1" d="M19.056 57.517c.093.19.19.376.283.56a.466.466 0 0 0 .83-.427 71.12 71.12 0 0 1-.28-.548.464.464 0 1 0-.833.415Zm1.8 3.298.161.284.15.255a.466.466 0 1 0 .807-.466l-.149-.256-.162-.282a.467.467 0 0 0-.808.465Zm1.715 3.21c.062.175.124.364.18.565a.466.466 0 0 0 .895-.256 7.805 7.805 0 0 0-.196-.62.464.464 0 0 0-.593-.284.47.47 0 0 0-.286.595Zm.792 3.554c.031.202.066.406.097.611a.465.465 0 1 0 .92-.141 38.232 38.232 0 0 0-.097-.617.466.466 0 1 0-.92.147Zm.563 3.689c.03.204.065.41.102.617a.464.464 0 1 0 .917-.156c-.034-.204-.068-.408-.1-.61a.466.466 0 1 0-.92.149Zm.73 3.697c.05.203.103.407.155.61a.467.467 0 0 0 .901-.241 42.802 42.802 0 0 1-.151-.592.465.465 0 1 0-.904.223Zm1.156 3.614c.081.195.165.39.252.583.106.235.38.34.615.235a.468.468 0 0 0 .237-.616c-.084-.184-.165-.37-.24-.557a.467.467 0 0 0-.864.355Zm1.809 3.365c.121.175.248.348.376.519a.47.47 0 0 0 .656.09.463.463 0 0 0 .087-.654c-.121-.16-.24-.323-.351-.487a.467.467 0 0 0-.768.532Zm2.585 2.84c.162.136.33.27.5.4a.465.465 0 1 0 .566-.74 15.93 15.93 0 0 1-.469-.375.465.465 0 1 0-.597.715Zm3.242 2.052a18.476 18.476 0 0 0 .584.26.466.466 0 0 0 .36-.86l-.183-.079c-.124-.054-.245-.11-.367-.166a.468.468 0 0 0-.621.225.468.468 0 0 0 .227.62Zm3.698 1.104c.218.027.432.046.646.06a.467.467 0 1 0 .056-.931 9.63 9.63 0 0 1-.59-.054.465.465 0 1 0-.112.925Zm3.878-.296c.212-.06.417-.129.622-.204a.465.465 0 0 0 .277-.598.464.464 0 0 0-.597-.277 9.57 9.57 0 0 1-.56.184.467.467 0 1 0 .258.895Zm3.434-1.838c.165-.14.327-.285.485-.437a.466.466 0 1 0-.646-.672 9.291 9.291 0 0 1-.438.395.466.466 0 0 0 .6.714Zm1.682-2.373c.127.176.258.348.391.515a.467.467 0 0 0 .727-.584 11.617 11.617 0 0 1-.36-.475.466.466 0 0 0-.758.544Zm2.769 2.712c.18.122.363.237.553.346.22.129.506.053.637-.17a.467.467 0 0 0-.171-.637 8.9 8.9 0 0 1-.5-.313.465.465 0 1 0-.52.774Zm3.602 1.473c.21.039.428.071.646.096a.467.467 0 0 0 .516-.41.468.468 0 0 0-.41-.516 9.143 9.143 0 0 1-.585-.087.466.466 0 1 0-.168.917Zm3.872.012c.211-.035.425-.077.634-.125a.464.464 0 0 0 .35-.558.464.464 0 0 0-.555-.352c-.193.044-.389.083-.585.116a.466.466 0 0 0 .155.92Zm3.648-1.268c.19-.103.376-.21.56-.323a.463.463 0 0 0 .152-.641.465.465 0 0 0-.64-.154c-.171.105-.342.204-.516.299a.465.465 0 1 0 .444.819Zm3.067-2.331c.15-.153.296-.309.439-.47a.466.466 0 1 0-.693-.621c-.134.15-.27.296-.41.438a.466.466 0 0 0 .664.653Zm2.306-3.067c.106-.184.209-.37.308-.561a.465.465 0 0 0-.196-.629.468.468 0 0 0-.63.197c-.094.18-.19.356-.29.53a.467.467 0 0 0 .808.463Zm1.532-3.492c.069-.2.134-.401.2-.6a.468.468 0 0 0-.893-.28c-.059.193-.124.387-.19.58a.47.47 0 0 0 .293.591.464.464 0 0 0 .59-.291Zm.998-3.646c.044-.206.087-.411.127-.615a.463.463 0 0 0-.363-.55.468.468 0 0 0-.55.364c-.04.2-.081.4-.125.602-.055.252.103.5.355.555a.47.47 0 0 0 .556-.356Zm.678-3.692c.034-.198.065-.394.096-.589l.003-.026a.466.466 0 1 0-.92-.148l-.003.026c-.031.194-.062.39-.096.587a.466.466 0 0 0 .92.15Zm.63-3.659c.04-.202.081-.402.125-.6a.465.465 0 1 0-.91-.2c-.044.204-.088.41-.128.617a.464.464 0 0 0 .363.548.468.468 0 0 0 .55-.365Zm1.128-3.41c.09-.178.18-.359.28-.543a.468.468 0 0 0-.827-.435c-.099.19-.195.377-.288.563a.467.467 0 0 0 .835.415Zm1.794-3.24c.071-.129.146-.258.217-.389l-.407-.228.1.456.18-.04a.464.464 0 0 0 .348-.56.465.465 0 0 0-.56-.349 6.106 6.106 0 0 1-.164.037.458.458 0 0 0-.308.228c-.075.13-.146.258-.217.385a.465.465 0 1 0 .81.46Zm3.098-1.376c.19-.107.376-.217.553-.328a.467.467 0 1 0-.494-.79 12.4 12.4 0 0 1-.513.304.466.466 0 1 0 .454.815Zm3.067-2.311c.15-.145.277-.273.38-.376l.068-.07a.466.466 0 1 0-.662-.656l-.065.066a26.79 26.79 0 0 1-.37.365.466.466 0 0 0 .65.67Zm2.486-2.9c.122-.179.237-.359.349-.54a.466.466 0 0 0-.796-.486c-.103.169-.211.337-.323.505a.465.465 0 1 0 .77.522Zm1.657-3.488c.059-.21.109-.42.155-.632a.465.465 0 1 0-.91-.196c-.04.192-.09.384-.143.575a.464.464 0 0 0 .323.575.468.468 0 0 0 .575-.322Zm.323-3.87a11.428 11.428 0 0 0-.087-.643.468.468 0 0 0-.538-.382.465.465 0 0 0-.382.538c.031.196.06.392.08.587a.466.466 0 0 0 .926-.1Zm-1.06-3.718a11.26 11.26 0 0 0-.292-.576.466.466 0 1 0-.82.44 10 10 0 0 1 .267.534.468.468 0 0 0 .845-.398Zm.339-2.968c.072-.2.14-.405.202-.617a.467.467 0 0 0-.895-.263 9.345 9.345 0 0 1-.183.565.465.465 0 1 0 .876.315Zm.646-3.819c0-.212-.009-.428-.021-.647a.468.468 0 0 0-.932.06c.012.202.021.4.021.595a.466.466 0 1 0 .932-.008Zm-.662-3.805a13.873 13.873 0 0 0-.226-.605.466.466 0 0 0-.864.35c.074.184.143.37.208.56a.466.466 0 1 0 .882-.305Zm-1.78-3.415a15.856 15.856 0 0 0-.389-.512.464.464 0 1 0-.73.577c.124.157.246.317.36.48.15.208.442.256.65.106a.466.466 0 0 0 .109-.65Zm-2.648-2.787a15.963 15.963 0 0 0-.513-.391.467.467 0 0 0-.547.755c.162.115.32.239.476.363a.468.468 0 0 0 .655-.071.468.468 0 0 0-.071-.656Zm-3.307-1.97c-.198-.08-.4-.159-.602-.23a.466.466 0 1 0-.314.876c.186.069.373.14.556.215.24.1.513-.013.609-.249a.468.468 0 0 0-.249-.612Zm-2.467-2.207a19.586 19.586 0 0 0-.392-.5.467.467 0 0 0-.724.59c.128.156.252.314.376.476a.466.466 0 0 0 .74-.566Zm-2.576-2.803a20.98 20.98 0 0 0-.482-.42.464.464 0 0 0-.656.053.468.468 0 0 0 .053.66c.155.13.308.264.457.397a.464.464 0 0 0 .659-.034.463.463 0 0 0-.031-.656Zm-3.065-2.275c-.18-.108-.363-.214-.55-.32a.469.469 0 0 0-.634.18.468.468 0 0 0 .18.635c.178.099.352.198.526.304a.466.466 0 1 0 .478-.799Zm-3.44-1.64c-.199-.072-.398-.14-.6-.206a.465.465 0 1 0-.289.886c.193.062.383.127.572.196a.466.466 0 1 0 .317-.877Zm-3.686-.955c-.208-.034-.42-.065-.63-.093a.466.466 0 0 0-.523.401.468.468 0 0 0 .401.525c.202.025.404.056.603.087a.465.465 0 1 0 .15-.92Zm-3.794-.276c-.211.003-.423.01-.634.018a.466.466 0 1 0 .037.933c.202-.01.407-.016.61-.019a.466.466 0 1 0-.013-.932Zm-3.788.37c-.212.04-.417.08-.622.124a.467.467 0 0 0-.357.553.463.463 0 0 0 .553.358c.196-.04.395-.081.597-.119a.466.466 0 1 0-.17-.917Zm-3.652.889c-.205.05-.404.099-.59.14a.466.466 0 1 0 .202.91c.202-.044.407-.096.618-.15a.462.462 0 0 0 .336-.565.463.463 0 0 0-.566-.335Zm-3.353-.156c-.08-.028-.159-.059-.236-.084-.112-.04-.23-.084-.348-.124a.464.464 0 1 0-.31.876c.114.044.232.084.344.125.078.027.155.056.24.087a.463.463 0 0 0 .593-.286.464.464 0 0 0-.283-.594Zm-3.62-1.106a18.955 18.955 0 0 0-.631-.121.465.465 0 1 0-.156.92c.2.034.398.07.59.111a.466.466 0 1 0 .196-.91Zm-3.807-.367a43.22 43.22 0 0 0-.634.012.468.468 0 0 0 .03.933c.203-.006.405-.013.61-.013a.465.465 0 0 0 .463-.466.468.468 0 0 0-.47-.466Zm-3.792.367c-.208.037-.416.08-.621.127a.466.466 0 0 0 .199.91c.198-.043.397-.083.596-.124a.462.462 0 0 0 .37-.543.462.462 0 0 0-.544-.37ZM29.62 14.27c-.196.075-.395.153-.59.234a.466.466 0 0 0 .357.864c.187-.078.376-.153.566-.224a.47.47 0 0 0 .27-.603.47.47 0 0 0-.603-.27Zm-3.428 1.648a22.56 22.56 0 0 0-.54.329.465.465 0 1 0 .494.79c.174-.106.345-.212.519-.314a.468.468 0 0 0-.473-.805ZM23.09 18.12c-.159.14-.32.277-.476.42a.467.467 0 0 0-.037.658.47.47 0 0 0 .659.034c.152-.136.305-.27.457-.4a.464.464 0 0 0 .056-.656.47.47 0 0 0-.66-.056Zm-2.676 2.704c-.137.164-.27.33-.398.494a.465.465 0 1 0 .734.575c.124-.159.252-.317.379-.473a.464.464 0 0 0-.06-.655.467.467 0 0 0-.655.059Zm-2.163 3.135v.003c-.102.184-.202.367-.301.554a.466.466 0 1 0 .826.435c.094-.18.19-.358.286-.532l.003-.003a.465.465 0 0 0-.177-.634.469.469 0 0 0-.637.177Zm-1.575 3.46c-.072.198-.14.397-.205.598a.464.464 0 1 0 .883.294c.064-.194.13-.385.198-.576a.466.466 0 1 0-.876-.317Zm-1.023 3.652-.121.62a.466.466 0 0 0 .917.168c.037-.201.077-.401.118-.6a.467.467 0 0 0-.914-.189Zm-.537 3.743c-.016.208-.035.418-.047.628a.466.466 0 1 0 .93.063l.046-.611a.466.466 0 1 0-.93-.08Zm-.134 3.77c.003.209.006.418.012.628a.466.466 0 1 0 .933-.024c-.007-.206-.01-.41-.013-.614a.466.466 0 1 0-.932.01Zm.199 3.76c.019.207.04.415.062.624a.465.465 0 1 0 .926-.096c-.022-.206-.04-.41-.059-.613a.468.468 0 0 0-.93.085Zm.47 3.73c.033.207.067.413.102.618a.467.467 0 0 0 .92-.157 36.56 36.56 0 0 1-.1-.608.467.467 0 0 0-.923.147Zm.723 3.692c.047.204.097.408.146.61a.466.466 0 1 0 .904-.224c-.046-.199-.096-.398-.142-.599a.466.466 0 0 0-.908.213Zm1.004 3.63.196.596a.47.47 0 0 0 .593.293.468.468 0 0 0 .292-.59 39.96 39.96 0 0 1-.192-.585.467.467 0 0 0-.89.286Zm.208.627c.069.201.137.4.212.598a.465.465 0 1 0 .873-.322c-.069-.19-.137-.381-.202-.575a.467.467 0 0 0-.883.299Z"/><path fill="url(#a)" d="M23.917 51.884c1.01 2.994 2.809 5.575 4.276 8.35 3.21 6.07.873 17.406 8.316 20.654 7.374 3.217 5.69-11.885 5.771-14.733.06-1.945.656-4.026 1.899-5.54 2.066-2.526 4.782-.364 5.532 1.915 1.32 4.027.155 8.558.463 12.694.158 2.141 1.15 5.567 3.76 5.854 2.983.33 5.233-2.106 6.28-4.69 1.648-4.058 1.766-8.464 2.797-12.682.964-3.938 3.68-7.138 5.2-10.86.285.118.584.22.898.286 1.942.415 3.595-.815 4.876-2.096 1.28-1.28 2.51-2.933 2.097-4.878-.444-2.079-2.138-3.541-3.61-4.995a45.617 45.617 0 0 0 2.082-2.252c.658-.771 1.662-2.047 1.457-3.968-.351-3.304-3.938-6.383-7.232-5.718-2.567-6.44-8.176-10.047-15.234-9.174-2.588.32-5.177 1.557-7.8 1.439-2.359-.109-4.6-1.545-6.964-1.837-5.812-.718-11.853 2.514-14.706 7.586-2.729 4.85-2.729 11.242-2.001 16.592.373 2.742.954 5.43 1.843 8.053Z"/><path fill="#42F2A6" d="M73.575 45.193c1.385 1.567.183 3.292-.98 4.453-1.193 1.192-2.834 2.306-4.453.978-.941-.771-1.8-1.662-2.663-2.522.963-.965 1.917-1.938 2.878-2.898.885-.884 1.802-1.76 2.713-2.649.851.865 1.703 1.73 2.505 2.638ZM69.64 31.056c1.047-.064 1.983.547 2.868 1.43 1.33 1.33 2.244 2.736 1.063 4.54-1.852 2.268-4.111 4.285-6.172 6.355-2.433 2.44-4.829 4.965-7.418 7.241-2.678 2.176-7.623-2.755-5.435-5.433 2.141-2.438 4.515-4.693 6.809-6.986 2.001-2.004 3.962-4.179 6.119-6.045.603-.522 1.277-1.048 2.166-1.102Zm-12.577 8.626c-.851-.87-1.709-1.74-2.517-2.652-1.386-1.569-.183-3.293.979-4.456 1.19-1.192 2.831-2.308 4.45-.98.936.767 1.79 1.653 2.651 2.51-.746.764-1.482 1.533-2.228 2.275-1.103 1.1-2.225 2.196-3.335 3.303Z"/><path fill="#E8E7E6" d="M24.808 30.522c2.288-7.42 10.287-10.306 17.226-8.02 1.815.6 3.553 1.194 5.486.846 3.691-.659 7.094-1.945 10.908-1.27 4.046.714 6.815 3.775 8.334 7.363.2.473.056.704-.227.937-.87.73-1.706 1.517-2.523 2.326-1.454-1.474-2.921-3.174-5-3.617-1.946-.414-3.599.816-4.88 2.096-1.28 1.282-2.51 2.934-2.094 4.878.445 2.085 2.157 3.571 3.642 5.03a72.845 72.845 0 0 0-2.523 2.707c-3.85 4.709 3.505 12.04 8.214 8.214a71.558 71.558 0 0 0 2.706-2.528c.637.648 1.28 1.332 1.974 1.94.41.36.404.57.164 1.132-1.395 3.331-3.62 6.234-4.82 9.672-1.435 4.109-1.32 8.597-2.71 12.735-.543 1.62-1.473 2.926-2.884 3.887-2.411 1.64-3.24-1.57-3.53-2.774-.584-2.43-.152-5.184-.046-7.649.118-2.846-.11-5.94-1.498-8.48-.942-1.718-3.226-2.755-5.144-2.275-2.647.665-3.94 2.75-4.739 5.222-1.153 3.573-.314 7.544-.376 11.21-.025 1.453-.295 2.749-.945 4.036-1.55 3.072-4.363-.63-4.99-1.637-1.318-2.113-1.648-4.95-2.03-7.356-.612-3.808-1.255-7.342-3.073-10.78-1.567-2.962-3.23-5.568-4.186-8.803-1.794-6.046-2.313-12.966-.436-19.042Z"/><path fill="#C6C5C3" d="M66.05 51.425c-.226-.2-.444-.416-.661-.629-.814 2.072-2.057 3.939-3.282 5.846-1.548 2.41-2.573 4.758-3.027 7.592-.435 2.723-.522 5.49-1.175 8.18a9.212 9.212 0 0 1-1.355 2.989c-1.336 1.928-2.48 1.7-3.026-.665-.858-3.707.17-7.926-.407-11.81-.588-3.908-2.797-7.482-7.105-7.551-2.28-.037-4.273 1.7-5.556 3.406-1.775 2.355-1.859 5.434-1.567 8.242.265 2.523.66 5.253.324 7.707-.27 2-1.14 2.756-2.418 1.414-1.436-1.508-1.899-3.841-2.278-5.813-.473-2.433-.752-4.856-1.439-7.249-.88-3.069-2.253-5.978-3.72-8.803-1.274-2.458-2.635-4.764-3.446-7.43-.833-2.727-1.194-5.592-1.29-8.434-.121-3.584.28-7.32 1.48-10.743a12.405 12.405 0 0 0-1.294 2.848c-1.877 6.076-1.358 12.996.436 19.042.957 3.235 2.62 5.841 4.186 8.803 1.818 3.439 2.46 6.972 3.073 10.78.382 2.407.712 5.243 2.03 7.356.627 1.007 3.44 4.71 4.99 1.637.65-1.287.92-2.583.945-4.037.062-3.665-.777-7.636.376-11.21.799-2.472 2.092-4.556 4.74-5.22 1.917-.48 4.201.556 5.143 2.274 1.389 2.54 1.616 5.634 1.498 8.48-.106 2.464-.538 5.22.046 7.648.29 1.204 1.119 4.414 3.53 2.775 1.411-.961 2.34-2.266 2.884-3.887 1.39-4.138 1.275-8.626 2.71-12.735 1.2-3.438 3.425-6.34 4.82-9.672.24-.563.246-.771-.164-1.131Z"/><path fill="#F7F7F7" d="M55.08 25.822c-1-.336-2.206-.283-3.17-.227-2.47.143-4.077 1.84-6.376 2.43-2.38.611-4.429-1.613-6.58-2.868-2.616-1.523-5.093-.274-6.787 1.88-2.079 2.64-2.924 6.504-3.176 9.605-.488 5.978 1.324 11.54 4.187 16.63 1.389 2.471 1.79.942 2.753-.322a8.248 8.248 0 0 1 3.48-2.645c2.011-.823 3.835-.291 5.877-.132 2.275.18 3.189-1.638 3.245-3.627.034-1.276-.24-2.573-.535-3.806-.525-2.208-1.004-4.394-1.044-6.676-.093-4.904 3.042-8.695 7.66-9.151.286-.028 3.26-.153.467-1.091Z"/><path fill="#42F2A6" d="M73.037 33.052c.36 2.459-1.309 4.406-2.987 6.23-1.283 1.396-2.62 2.742-3.962 4.079-1.414 1.407-2.834 2.743-4.5 3.854-1.315.876-2.837 1.54-4.44 1.24-1.552-.29-2.49-1.924-2.453-3.427l-.149.16c-2.188 2.679 2.757 7.61 5.435 5.434 2.59-2.276 4.985-4.801 7.418-7.241 2.06-2.07 4.32-4.087 6.172-6.355 1.017-1.55.482-2.807-.534-3.974Z"/><path fill="#6EFFC0" d="M70.827 33.596c-1.122-1.202-2.237-.642-3.471.63-2.766 2.845-5.585 5.647-8.22 8.613-2.154 2.422-2.113 4.425 1.607 2.085 2.8-1.762 6.84-5.266 9.357-8.09.702-.79 1.653-2.246.727-3.238Z"/><path fill="#42F2A6" d="M54.546 37.03c.808.912 1.666 1.782 2.517 2.652 1.11-1.108 2.232-2.202 3.335-3.303.615-.615 1.23-1.248 1.846-1.882-.855.734-1.765 1.4-2.75 1.94-1.265.693-3.111 1.16-4.109-.221-.45-.62-.783-1.556-.842-2.468-.668 1.006-.97 2.182.003 3.282Zm18.997 11.492c-.6.42-1.258.776-2.032 1.042-1.66.572-3.226.094-4.155-1.415-.317-.513-.398-1.053-.342-1.592l-1.535 1.545c.864.86 1.722 1.75 2.663 2.522 1.62 1.328 3.26.214 4.454-.979.332-.333.668-.714.947-1.123Z"/><path fill="#6EFFC0" d="M59.866 32.374c-.575-.454-1.292-.696-2.023-.484-.802.233-1.855 1.21-1.73 2.13.13.965.9 1.664 1.883 1.404.72-.188 1.27-.83 1.808-1.431.547-.61.696-1.118.062-1.62Zm11.3 12.87c-.38.316-.855.621-1.066.809-.342.299-.855.8-.833 1.31.047 1.026.995 1.402 1.902 1.285.917-.117 1.713-.69 1.955-1.593.183-.688-.168-1.347-.64-1.874-.613-.681-.755-.41-1.318.063Z"/><defs><linearGradient id="a" x1="48.89" x2="48.89" y1="88" y2="12.872" gradientUnits="userSpaceOnUse"><stop stop-color="#2273FF"/><stop offset="1" stop-color="#8EC7FF"/></linearGradient></defs></svg>