<svg xmlns="http://www.w3.org/2000/svg" width="99" height="99" fill="none">
<path fill="#fff" d="M0 0h99v99H0z"/>
<path fill="#fff" d="M23.555 60.532c.727 1.24 1.413 2.417 1.87 3.513.688 1.65.997 3.802 1.325 6.084.238 1.66.484 3.374.9 5.14.96 4.086 5.62 13.041 13.212 13.045 1.791 0 5.21-.561 7.988-4.315.165-.223.321-.448.47-.674 2.051 2.959 5.418 4.808 9.05 4.808 1.986 0 3.881-.56 5.48-1.617 5.954-3.942 7.809-13.841 8.12-15.788.665-4.154 1.402-7.157 3.2-10.225 2.016-3.442 3.288-6.39 4.127-9.558a47.607 47.607 0 0 0 .71-21.088c-1.763-9.117-7.549-15.572-15.875-17.708a18.33 18.33 0 0 0-4.559-.551c-2.73 0-5.269.518-7.605 1.082-1.202.29-1.96.413-2.537.413-.373 0-.884-.045-1.85-.368-2.564-.86-5.146-1.298-7.676-1.298-5.484 0-10.736 2.069-15.185 5.98-4.85 4.264-7.29 11.177-7.253 20.551.026 6.036 1.204 12.059 3.409 17.418.796 1.937 1.797 3.645 2.679 5.156Z"/><path fill="#C2C1C1" d="m24.936 64.128.043.1c.063.152.123.31.18.47a.482.482 0 0 0 .911-.322 9.602 9.602 0 0 0-.199-.518l-.046-.11a.483.483 0 1 0-.889.38Zm.96 3.62c.037.209.07.418.105.631a.484.484 0 0 0 .955-.151 57.83 57.83 0 0 0-.107-.645.485.485 0 0 0-.952.164Zm.574 3.815c.033.212.065.425.1.641a.484.484 0 0 0 .954-.151 98.868 98.868 0 0 1-.098-.635.484.484 0 0 0-.956.145Zm.714 3.838c.05.206.107.425.173.65a.48.48 0 0 0 .6.326.482.482 0 0 0 .328-.599c-.062-.21-.115-.41-.16-.6a.482.482 0 0 0-.94.222Zm1.377 3.725c.093.194.191.39.293.59a.485.485 0 0 0 .86-.445c-.098-.19-.193-.377-.282-.564a.482.482 0 1 0-.871.42Zm2 3.403c.126.178.256.355.39.532a.483.483 0 0 0 .77-.583 19.937 19.937 0 0 1-.372-.51.484.484 0 0 0-.788.561Zm2.602 2.99c.163.149.33.297.5.442a.485.485 0 0 0 .623-.74 13.06 13.06 0 0 1-.469-.413.484.484 0 0 0-.654.712Zm3.293 2.263c.202.097.407.187.616.27a.482.482 0 1 0 .36-.895 11.59 11.59 0 0 1-.562-.245.481.481 0 1 0-.414.87Zm3.9 1.002c.167.007.336.013.506.013.055 0 .113-.003.171-.003a.484.484 0 0 0-.018-.967c-.052 0-.102.003-.152.003-.154 0-.307-.006-.459-.013a.483.483 0 0 0-.507.458.486.486 0 0 0 .458.51Zm3.988-.641c.206-.08.414-.168.624-.264a.483.483 0 1 0-.408-.876c-.19.086-.378.167-.563.238a.483.483 0 1 0 .347.902Zm3.4-2.162c.159-.152.317-.31.474-.474a.483.483 0 0 0-.7-.667c-.146.154-.291.3-.438.435a.484.484 0 1 0 .663.706Zm1.724-1.654c.141.174.288.342.438.51a.484.484 0 0 0 .714-.655 9.952 9.952 0 0 1-.403-.467.485.485 0 0 0-.75.612Zm3.026 2.633c.192.116.387.23.585.332a.483.483 0 1 0 .452-.854 11.32 11.32 0 0 1-.536-.303.483.483 0 0 0-.5.825Zm3.746 1.45c.22.042.441.081.664.11a.483.483 0 1 0 .127-.96 9.515 9.515 0 0 1-.607-.097.482.482 0 1 0-.184.947Zm4.021.04c.223-.04.443-.085.661-.14a.482.482 0 1 0-.23-.937c-.198.048-.398.09-.6.125a.486.486 0 0 0-.391.561.48.48 0 0 0 .56.39Zm3.756-1.467c.034-.023.067-.042.1-.065.154-.103.305-.21.454-.319a.483.483 0 0 0-.573-.777c-.135.1-.274.197-.414.29l-.091.059a.483.483 0 1 0 .524.812Zm2.959-2.691c.14-.168.277-.342.41-.519a.483.483 0 1 0-.77-.583c-.126.164-.255.329-.387.49a.483.483 0 1 0 .747.612Zm2.17-3.31c.103-.193.203-.39.3-.586a.484.484 0 0 0-.866-.429c-.093.19-.19.377-.288.564a.485.485 0 0 0 .201.654.487.487 0 0 0 .654-.203Zm1.582-3.602c.075-.207.148-.413.218-.616a.485.485 0 1 0-.915-.313c-.068.197-.139.397-.212.6a.482.482 0 1 0 .909.329Zm1.137-3.751c.054-.223.105-.436.151-.639a.486.486 0 0 0-.363-.58.485.485 0 0 0-.579.365c-.045.2-.095.406-.148.621a.483.483 0 0 0 .938.232Zm.75-3.835c.037-.213.074-.422.112-.629a.485.485 0 1 0-.951-.174c-.039.21-.076.422-.114.638a.482.482 0 0 0 .395.558.48.48 0 0 0 .558-.393Zm.793-3.739c.055-.203.112-.409.171-.609a.483.483 0 1 0-.928-.27 32.6 32.6 0 0 0-.177.631.48.48 0 0 0 .342.59.482.482 0 0 0 .592-.342Zm1.265-3.56c.088-.187.178-.377.273-.568a.483.483 0 1 0-.865-.431c-.099.2-.194.396-.286.596a.484.484 0 0 0 .878.403Zm1.828-3.368c.105-.193.207-.384.306-.574a.484.484 0 0 0-.856-.45c-.097.186-.197.373-.3.563a.482.482 0 0 0 .195.654.481.481 0 0 0 .655-.193Zm1.706-3.519c.086-.203.17-.403.25-.606a.482.482 0 1 0-.897-.36c-.079.196-.16.392-.243.586a.483.483 0 0 0 .89.38Zm1.322-3.693c.06-.21.12-.419.177-.629a.483.483 0 0 0-.933-.254c-.055.206-.113.41-.172.612a.482.482 0 1 0 .927.27Zm.916-3.8c.042-.212.082-.425.12-.64a.483.483 0 1 0-.95-.172c-.038.207-.078.416-.12.626a.484.484 0 0 0 .95.186Zm.596-3.86.069-.648a.484.484 0 1 0-.963-.093c-.02.21-.043.422-.067.634a.48.48 0 0 0 .426.532.48.48 0 0 0 .535-.425Zm.28-3.893c.008-.22.013-.435.017-.65a.483.483 0 1 0-.966-.02c-.004.212-.01.425-.017.638a.485.485 0 0 0 .468.5.486.486 0 0 0 .499-.468Zm-.034-3.906c-.01-.216-.022-.435-.036-.65a.482.482 0 1 0-.965.06c.014.213.026.426.036.639a.484.484 0 0 0 .965-.049Zm-.35-3.89a42.44 42.44 0 0 0-.09-.644.484.484 0 0 0-.956.139c.03.21.06.422.087.631a.483.483 0 0 0 .959-.125Zm-.678-3.854c-.05-.212-.102-.425-.156-.638a.481.481 0 0 0-.588-.344.481.481 0 0 0-.348.586c.052.203.102.41.15.616a.483.483 0 0 0 .942-.22Zm-1.163-3.757c-.08-.206-.164-.406-.25-.61a.482.482 0 0 0-.633-.254.48.48 0 0 0-.256.632c.082.193.162.39.24.587a.48.48 0 0 0 .626.27.481.481 0 0 0 .273-.625Zm-1.737-3.538c-.113-.19-.228-.377-.346-.561a.481.481 0 0 0-.668-.145.482.482 0 0 0-.147.667c.113.177.224.354.332.535a.486.486 0 0 0 .663.167.485.485 0 0 0 .166-.663Zm-2.324-3.194a18.387 18.387 0 0 0-.443-.487.483.483 0 1 0-.706.657c.143.156.284.31.423.468a.485.485 0 0 0 .726-.638Zm-2.876-2.71a18.347 18.347 0 0 0-.527-.396.483.483 0 0 0-.569.783c.17.122.337.248.502.377a.484.484 0 1 0 .594-.764Zm-3.337-2.117a82.403 82.403 0 0 0-.591-.29.484.484 0 0 0-.412.876c.19.09.378.18.565.277a.485.485 0 0 0 .439-.863Zm-3.665-1.463c-.21-.065-.42-.123-.633-.18a.484.484 0 0 0-.251.935c.203.053.406.111.606.17a.483.483 0 1 0 .278-.925Zm-3.888-.751a21.79 21.79 0 0 0-.66-.042.483.483 0 1 0-.048.963c.21.013.42.026.627.042.266.023.5-.174.522-.441a.485.485 0 0 0-.441-.522Zm-3.948.042c-.22.019-.437.045-.653.07a.482.482 0 0 0-.423.535.486.486 0 0 0 .538.426c.209-.026.418-.049.63-.068a.484.484 0 0 0-.092-.964Zm-3.873.622c-.213.045-.425.093-.635.138a.484.484 0 0 0 .214.944c.207-.048.414-.093.624-.138a.482.482 0 1 0-.203-.944Zm-3.72.75a3.295 3.295 0 0 1-.571.004.482.482 0 1 0-.077.963 4.576 4.576 0 0 0 .716 0 .486.486 0 0 0-.068-.966Zm-3.592-.812a15.622 15.622 0 0 0-.637-.16.482.482 0 1 0-.226.937c.204.048.408.103.613.158a.486.486 0 0 0 .592-.345.48.48 0 0 0-.342-.59Zm-3.875-.718a23.22 23.22 0 0 0-.655-.058.484.484 0 0 0-.072.963c.209.016.419.036.629.055a.483.483 0 1 0 .099-.96ZM38.316 11c-.219.016-.438.036-.656.058a.482.482 0 1 0 .098.96c.209-.022.418-.038.627-.054a.484.484 0 0 0-.069-.964Zm-3.897.635c-.212.055-.424.11-.635.17a.484.484 0 0 0 .268.932c.201-.058.404-.116.607-.167a.482.482 0 1 0-.24-.935Zm-3.72 1.309c-.2.09-.398.183-.596.277a.486.486 0 0 0-.223.647.482.482 0 0 0 .646.223c.19-.09.38-.18.57-.268a.482.482 0 1 0-.398-.88Zm-3.446 1.91c-.182.12-.363.245-.543.371a.483.483 0 1 0 .556.79c.173-.12.347-.239.522-.355a.484.484 0 0 0-.535-.806Zm-3.107 2.417c-.163.149-.323.303-.48.458a.483.483 0 1 0 .678.686c.148-.145.3-.286.454-.428a.484.484 0 0 0-.652-.716Zm-2.617 2.975c-.127.18-.25.364-.372.548a.485.485 0 0 0 .809.531c.115-.177.233-.35.353-.518a.487.487 0 0 0-.116-.677.487.487 0 0 0-.674.116Zm-1.953 3.438c-.09.197-.178.4-.263.603a.483.483 0 0 0 .892.374c.082-.197.165-.39.252-.58a.482.482 0 1 0-.881-.397Zm-1.33 3.703c-.058.21-.114.422-.168.635a.482.482 0 0 0 .937.238c.052-.21.106-.412.162-.612a.484.484 0 0 0-.931-.261Zm-.807 3.841c-.032.213-.062.429-.091.645a.486.486 0 0 0 .416.544.485.485 0 0 0 .542-.418c.028-.21.058-.42.089-.629a.48.48 0 0 0-.406-.548.481.481 0 0 0-.55.406Zm-.387 3.89a48.95 48.95 0 0 0-.03.65.484.484 0 1 0 .966.04l.03-.639a.482.482 0 0 0-.457-.506.481.481 0 0 0-.509.455Zm-.05 3.906c.005.216.012.435.02.65a.484.484 0 1 0 .967-.038 42.428 42.428 0 0 1-.021-.638.483.483 0 1 0-.967.026Zm.26 3.896c.023.216.048.432.074.648a.484.484 0 0 0 .96-.117c-.026-.212-.05-.422-.073-.634a.484.484 0 0 0-.961.103Zm.575 3.864c.04.212.083.425.126.638a.483.483 0 1 0 .947-.194c-.043-.21-.084-.415-.123-.625a.485.485 0 0 0-.566-.387.485.485 0 0 0-.384.568Zm.89 3.802c.058.21.117.42.179.629a.486.486 0 0 0 .6.328.486.486 0 0 0 .327-.602c-.06-.203-.118-.406-.175-.613a.48.48 0 0 0-.596-.335.482.482 0 0 0-.336.593Zm1.21 3.719c.076.203.154.406.233.61a.485.485 0 0 0 .9-.355 34.932 34.932 0 0 1-.228-.596.484.484 0 0 0-.905.341Zm1.585 3.587c.101.196.203.386.306.577a.482.482 0 1 0 .85-.458c-.1-.187-.2-.374-.298-.564a.483.483 0 1 0-.858.445Zm1.616 2.88.325.558a.484.484 0 0 0 .836-.486l-.326-.558a.483.483 0 1 0-.835.487Z"/><path fill="url(#a)" d="M31.375 61.566c1.594 3.829 1.607 8.224 2.55 12.23.778 3.313 5.849 11.634 9.745 6.368 1.984-2.681 1.817-6.204 1.67-9.381-.163-3.503-.808-11.211 4.377-11.563 6.911.674 2.202 13.532 4.315 19.307 1.07 2.932 4.352 3.877 6.262 2.613 3.107-2.056 4.865-8.636 5.312-11.43.73-4.563 1.638-8.43 4.003-12.465 1.516-2.588 2.69-5.046 3.457-7.947 1.554-5.875 1.765-12.262.614-18.217-1.191-6.158-4.897-11.085-11.15-12.69-2.965-.76-6.146-.145-9.055.554-3.034.731-4.981.883-7.944-.11-6.03-2.023-11.717-.84-16.556 3.413-4.274 3.758-5.084 10.354-5.063 15.684.022 5.053 1 10.312 2.924 14.992 1.243 3.02 3.28 5.623 4.539 8.642Z"/><path fill="#E8E7E6" d="M32.277 22.287c3.346-2.301 7.073-3.033 10.972-2.027 2.205.57 4.259 1.637 6.587 1.524 2.972-.142 5.818-1.428 8.805-1.66 4.722-.36 8.998 2.198 11.27 6.24 3.302 5.867 2.842 13.937 1.654 20.311-1.308 7.022-6.16 12.33-7.436 19.37-.742 4.093-.833 8.786-3.589 12.156-.603.793-1.294 1.18-2.075 1.16-1.391-.029-2.485-.631-2.881-3.051-.117-.719-.163-1.444-.205-2.002-.173-2.34.158-4.727.194-7.067.045-2.99-.41-6.541-2.456-8.53-1.872-1.82-5.016-2.249-7.404.223-2.904 3.013-2.537 9.18-2.358 13.029.086 1.862.303 9.09-3.876 7.266-2.482-1.082-3.27-4.618-3.824-6.977-.974-4.137-.947-8.526-2.815-12.429-1.48-3.09-3.507-5.862-4.675-9.097-1.113-3.09-1.715-6.38-2.043-9.636-.683-6.796.105-14.65 6.155-18.803Z"/><path fill="#C6C5C3" d="M55.38 74.308c.041.558.087 1.283.204 2.002.396 2.42 1.49 3.022 2.881 3.052.78.019 1.472-.368 2.075-1.16 2.756-3.371 2.847-8.064 3.589-12.156 1.276-7.041 6.128-12.349 7.436-19.37 1.188-6.375 1.648-14.445-1.653-20.313a12.938 12.938 0 0 0-1.71-2.355c1.557 3.802 2.345 7.934 2.638 12.033.236 3.29.138 6.593-.662 9.803-.787 3.161-2.239 6.123-3.62 9.052-1.19 2.526-2.352 5.06-3.189 7.724-.81 2.581-1 5.227-1.307 7.892-.152 1.318-.348 2.656-.747 3.919-1.053 3.332-3.22 2.733-3.645.277-.17-.973-.215-1.979-.253-2.861-.13-3.036.279-6.065-.284-9.075-.819-4.383-3.49-7.992-8.323-7.396-4.604.567-7.2 4.866-7.442 9.165-.196 3.506 1.182 7.009.388 10.499-.849 3.732-2.596 2.146-3.479-.11-.709-1.81-1.085-3.805-1.43-5.587-.599-3.1-1.297-6.052-2.503-8.979-1.087-2.639-2.413-5.175-3.608-7.766-1.334-2.89-2.437-5.865-2.952-9.013-.443-2.71-.336-5.598-.196-8.33.222-4.348 1.185-8.715 3.658-12.182C26.14 27.382 25.48 34.7 26.122 41.09c.328 3.255.93 6.545 2.043 9.636 1.168 3.235 3.195 6.007 4.675 9.097 1.867 3.903 1.84 8.292 2.815 12.43.554 2.358 1.342 5.894 3.824 6.976 4.178 1.824 3.962-5.404 3.877-7.266-.18-3.848-.547-10.016 2.357-13.03 2.388-2.471 5.532-2.042 7.404-.222 2.046 1.989 2.501 5.54 2.456 8.53-.036 2.34-.367 4.728-.194 7.067Z"/><path fill="#F7F7F7" d="M66.287 31.087c-.632-3.2-2.198-6.261-5.581-7.076-2.702-.651-4.987.709-7.318 1.75-2.735 1.218-4.308 1.424-7.565.212-2.24-.831-4.435-2.004-6.903-1.55-3.102.574-5.037 3.049-6.097 5.743-1.617 4.109-1.095 9.423-.192 13.628.7 3.258 1.575 6.61 3.154 9.578 1.088 2.043 2.17 1.237 3.027-.13 2.152-3.438 5.931-5.716 10.024-6.135 5.05-.519 9.055 2.6 10.574 7.054.562 1.653 1.314 2.194 2.34.532 1.775-2.878 2.897-6.146 3.757-9.4 1.214-4.59 1.706-9.526.78-14.206Z"/><defs><linearGradient id="a" x1="49.169" x2="49.169" y1="88.797" y2="11" gradientUnits="userSpaceOnUse"><stop stop-color="#2273FF"/><stop offset="1" stop-color="#7FBFFF"/></linearGradient></defs></svg>