<svg xmlns="http://www.w3.org/2000/svg" width="40" height="41" fill="none">
    <g clip-path="url(#a)">
        <path fill="#775732" d="M39.945 22H32.8c-6.24 0-11.3 5.06-11.3 11.3v7.145c9.85-.73 17.715-8.595 18.445-18.445ZM18.5 40.445V33.3c0-6.24-5.059-11.3-11.3-11.3H.056C.786 31.85 8.65 39.714 18.5 40.445ZM39.945 19C39.215 9.15 31.35 1.286 21.5.555V7.7c0 6.24 5.06 11.3 11.3 11.3h7.145ZM18.5.555C8.65 1.285.786 9.15.056 19H7.2c6.241 0 11.3-5.06 11.3-11.3V.555Z"/><path fill="#CA9352" d="M13.583 20.5A14.362 14.362 0 0 0 20 14.082a14.362 14.362 0 0 0 6.418 6.418A14.361 14.361 0 0 0 20 26.917a14.361 14.361 0 0 0-6.417-6.417Z"/>
    </g>
    <defs>
        <clipPath id="a">
            <path fill="#fff" d="M0 .5h40v40H0z"/>
        </clipPath>
    </defs>
</svg>