<svg xmlns="http://www.w3.org/2000/svg" width="40" height="42" fill="none">
    <g clip-path="url(#a)">
        <path fill="#FF630B" fill-rule="evenodd" d="M13.715 1.016c-2.257 0-4.42.896-6.016 2.492L0 11.207v3.524c0 2.49 1.07 4.73 2.774 6.285A8.485 8.485 0 0 0 0 27.302v3.524l7.699 7.698A8.507 8.507 0 0 0 20 38.242a8.508 8.508 0 0 0 12.301.282L40 30.826v-3.524c0-2.49-1.07-4.73-2.774-6.286A8.485 8.485 0 0 0 40 14.731v-3.524l-7.699-7.7A8.508 8.508 0 0 0 20 3.79a8.485 8.485 0 0 0-6.285-2.774Zm12.044 20a8.528 8.528 0 0 1-.282-.27L20 15.27l-5.477 5.477a8.528 8.528 0 0 1-.282.27c.096.087.19.177.282.269L20 26.762l5.477-5.476c.092-.093.186-.182.282-.27Zm-3.537 9.81v1.682a4.063 4.063 0 0 0 6.936 2.874l6.398-6.397v-1.683a4.063 4.063 0 0 0-6.937-2.874l-6.397 6.398Zm-4.444 0-6.397-6.398a4.063 4.063 0 0 0-6.937 2.873v1.684l6.397 6.397a4.063 4.063 0 0 0 6.937-2.873v-1.683Zm0-21.302v1.683l-6.397 6.397a4.063 4.063 0 0 1-6.937-2.873v-1.683l6.397-6.397a4.063 4.063 0 0 1 6.937 2.873Zm10.841 8.08-6.397-6.397V9.524a4.063 4.063 0 0 1 6.936-2.873l6.398 6.397v1.683a4.063 4.063 0 0 1-6.937 2.873Z" clip-rule="evenodd"/>
    </g>
    <defs>
        <clipPath id="a">
            <path fill="#fff" d="M0 .5h40v41H0z"/>
        </clipPath>
    </defs>
</svg>